<svg width="125" height="126" viewBox="0 0 125 126" fill="none" xmlns="http://www.w3.org/2000/svg">
<circle cx="62.4704" cy="62.9651" r="57.2657" fill="#FFFBF6" stroke="#FFBA5D" stroke-width="10"/>
<path d="M58.3924 47.7139C56.9196 47.7139 55.7257 46.52 55.7257 45.0472C55.7257 43.5744 56.9196 42.3805 58.3924 42.3805C59.8651 42.3805 61.059 43.5744 61.059 45.0472C61.059 46.52 59.8651 47.7139 58.3924 47.7139Z" fill="#FFC16D"/>
<path d="M66.2185 74.6192C62.6253 74.6192 60.1876 74.3813 58.3399 74.2476C57.0475 74.1959 55.8285 73.633 54.951 72.6827C54.0735 71.7324 53.6094 70.4725 53.6607 69.1801L54.5145 55.9525C54.5145 55.2963 54.6786 51.5828 58.5145 51.5828C58.9583 51.5753 59.3982 51.6671 59.802 51.8514C60.2058 52.0357 60.5633 52.3079 60.8485 52.648C61.9992 53.9581 62.6089 55.6566 62.554 57.3994L62.5145 61.2859L64.2184 64.8924L64.6382 68.5624L71.4083 70.7935C71.9897 70.971 72.5222 71.2807 72.9638 71.6985L73.0305 71.7616C73.4488 72.1464 73.7777 72.6183 73.994 73.1439C74.2103 73.6696 74.3088 74.2362 74.2825 74.804C74.2563 75.3718 74.1059 75.927 73.8419 76.4304C73.578 76.9338 73.207 77.3733 72.7549 77.7179C71.5936 78.4898 70.2264 78.8933 68.832 78.8756C62.6631 79.0633 54.2589 77.2301 54.2589 77.2301L56.9737 74.334" fill="#FFC16D"/>
<path d="M58.3924 47.7139C56.9196 47.7139 55.7257 46.52 55.7257 45.0472C55.7257 43.5744 56.9196 42.3805 58.3924 42.3805C59.8651 42.3805 61.059 43.5744 61.059 45.0472C61.059 46.52 59.8651 47.7139 58.3924 47.7139Z" stroke="#FFB44F" stroke-width="1.77778" stroke-miterlimit="10"/>
<path d="M66.3644 74.3343C62.7713 74.3343 60.1867 74.2334 58.3391 74.0996C57.0481 74.0102 55.8454 73.4117 54.9954 72.4357C54.1455 71.4598 53.7179 70.1863 53.8067 68.8952L53.9868 64.1841L54.5489 54.8165C54.6209 53.8492 55.0525 52.9438 55.7587 52.2787C56.4649 51.6137 57.3945 51.2371 58.3644 51.2232C59.3395 51.2536 60.272 51.6293 60.9959 52.2833C61.7197 52.9373 62.1878 53.827 62.3167 54.794L62.8089 59.2044L63.4311 65.4453" stroke="#FFB44F" stroke-width="1.77778" stroke-linecap="round" stroke-linejoin="round"/>
<path d="M64.0551 68.8698L71.5733 70.9238C72.1494 71.0884 72.681 71.3805 73.1289 71.7784L73.1956 71.838C73.6114 72.1897 73.9406 72.6325 74.1577 73.132C74.3747 73.6316 74.4737 74.1744 74.447 74.7184C74.4203 75.2624 74.2687 75.7929 74.0038 76.2688C73.7389 76.7447 73.3679 77.1532 72.9196 77.4625C71.7441 78.1958 70.3825 78.5753 68.9972 78.5558C64.2656 78.595 59.5355 78.374 54.8283 77.8938" stroke="#FFB44F" stroke-width="1.77778" stroke-linecap="round" stroke-linejoin="round"/>
<path d="M58.2622 55.624L58.9254 64.7911L68.28 67.4062" stroke="#FFB44F" stroke-width="1.77778" stroke-linecap="round" stroke-linejoin="round"/>
</svg>
