<svg width="428" height="779" viewBox="0 0 428 779" fill="none" xmlns="http://www.w3.org/2000/svg">
<g filter="url(#filter0_f_20_316)">
<ellipse cx="107.19" cy="105.094" rx="107.19" ry="105.094" transform="matrix(0.910527 -0.413449 0.420232 0.907416 0 201.635)" fill="white" fill-opacity="0.09"/>
</g>
<g filter="url(#filter1_f_20_316)">
<ellipse cx="107.189" cy="105.092" rx="107.189" ry="105.092" transform="matrix(0.910527 -0.413449 0.420232 0.907416 145.478 354.256)" fill="black" fill-opacity="0.03"/>
</g>
<g filter="url(#filter2_dd_20_316)">
<ellipse cx="217.851" cy="317.333" rx="128.857" ry="127.594" fill="#FFD7A1"/>
</g>
<g filter="url(#filter3_dii_20_316)">
<ellipse cx="217.851" cy="318.963" rx="83.1066" ry="82.2922" fill="#FFF3E4" fill-opacity="0.62" shape-rendering="crispEdges"/>
</g>
<path d="M221.471 227.82C220.629 227.82 219.906 227.607 219.303 227.181C218.703 226.751 218.241 226.132 217.917 225.324C217.597 224.513 217.436 223.536 217.436 222.394C217.44 221.252 217.602 220.281 217.922 219.48C218.246 218.675 218.708 218.061 219.308 217.639C219.911 217.216 220.632 217.005 221.471 217.005C222.31 217.005 223.031 217.216 223.634 217.639C224.238 218.061 224.699 218.675 225.02 219.48C225.344 220.284 225.506 221.256 225.506 222.394C225.506 223.54 225.344 224.518 225.02 225.33C224.699 226.138 224.238 226.755 223.634 227.181C223.034 227.607 222.313 227.82 221.471 227.82ZM221.471 226.219C222.126 226.219 222.642 225.897 223.021 225.253C223.402 224.605 223.593 223.652 223.593 222.394C223.593 221.563 223.506 220.864 223.332 220.298C223.159 219.732 222.913 219.306 222.596 219.019C222.279 218.73 221.904 218.585 221.471 218.585C220.82 218.585 220.305 218.909 219.927 219.556C219.548 220.201 219.357 221.147 219.354 222.394C219.351 223.23 219.434 223.932 219.605 224.501C219.778 225.071 220.024 225.5 220.341 225.79C220.658 226.076 221.035 226.219 221.471 226.219ZM217.051 253.093C215.827 253.093 214.805 254.101 214.805 255.339C214.805 256.592 215.827 257.6 217.051 257.6C218.304 257.6 219.312 256.592 219.312 255.339C219.312 254.101 218.304 253.093 217.051 253.093ZM217.051 256.736C216.302 256.736 215.669 256.117 215.669 255.339C215.669 254.576 216.302 253.957 217.051 253.957C217.829 253.957 218.448 254.576 218.448 255.339C218.448 256.117 217.829 256.736 217.051 256.736Z" fill="#333333"/>
<path opacity="0.5" d="M166.708 240.984C166.2 241.275 165.695 241.447 165.194 241.501C164.695 241.554 164.24 241.492 163.828 241.315C163.417 241.135 163.083 240.844 162.827 240.444L163.989 239.78C164.134 239.995 164.322 240.146 164.553 240.233C164.786 240.316 165.039 240.338 165.312 240.3C165.586 240.261 165.858 240.164 166.13 240.009C166.428 239.838 166.662 239.636 166.831 239.402C167.003 239.166 167.1 238.919 167.124 238.66C167.146 238.399 167.086 238.147 166.944 237.904C166.797 237.651 166.602 237.466 166.36 237.35C166.118 237.229 165.841 237.185 165.527 237.217C165.216 237.247 164.886 237.363 164.536 237.563L163.896 237.929L163.355 237.001L163.995 236.635C164.276 236.475 164.493 236.283 164.647 236.061C164.802 235.838 164.889 235.602 164.905 235.354C164.92 235.103 164.857 234.857 164.715 234.614C164.579 234.38 164.408 234.208 164.202 234.097C163.997 233.982 163.769 233.93 163.52 233.942C163.272 233.953 163.019 234.032 162.76 234.18C162.514 234.321 162.31 234.498 162.148 234.712C161.987 234.921 161.889 235.148 161.853 235.391C161.816 235.631 161.86 235.87 161.984 236.106L160.878 236.738C160.653 236.324 160.565 235.896 160.614 235.456C160.665 235.014 160.83 234.598 161.109 234.206C161.387 233.815 161.758 233.487 162.221 233.222C162.707 232.944 163.182 232.799 163.644 232.786C164.108 232.77 164.527 232.862 164.901 233.064C165.278 233.264 165.573 233.55 165.787 233.922C166.035 234.343 166.126 234.769 166.058 235.2C165.993 235.63 165.793 236.008 165.457 236.334L165.491 236.393C166.039 236.182 166.544 236.158 167.008 236.321C167.474 236.484 167.845 236.803 168.12 237.281C168.364 237.694 168.465 238.132 168.423 238.595C168.382 239.057 168.216 239.497 167.925 239.915C167.631 240.332 167.226 240.688 166.708 240.984ZM173.735 236.967C173.227 237.257 172.722 237.43 172.221 237.484C171.723 237.536 171.267 237.474 170.855 237.298C170.444 237.117 170.11 236.827 169.854 236.427L171.016 235.763C171.161 235.978 171.349 236.129 171.58 236.216C171.813 236.299 172.066 236.321 172.339 236.282C172.613 236.244 172.885 236.147 173.157 235.992C173.455 235.821 173.689 235.619 173.858 235.385C174.03 235.149 174.127 234.902 174.151 234.643C174.173 234.382 174.113 234.13 173.971 233.887C173.824 233.634 173.629 233.449 173.387 233.332C173.145 233.212 172.868 233.168 172.555 233.2C172.244 233.23 171.913 233.345 171.563 233.546L170.923 233.912L170.382 232.984L171.022 232.618C171.303 232.457 171.52 232.266 171.674 232.044C171.83 231.821 171.916 231.585 171.932 231.337C171.947 231.086 171.884 230.839 171.742 230.596C171.606 230.363 171.435 230.191 171.229 230.08C171.024 229.965 170.796 229.913 170.547 229.925C170.299 229.935 170.046 230.015 169.787 230.163C169.541 230.304 169.337 230.481 169.175 230.694C169.014 230.904 168.916 231.13 168.88 231.373C168.843 231.614 168.887 231.852 169.011 232.089L167.905 232.721C167.68 232.307 167.592 231.879 167.641 231.439C167.693 230.997 167.857 230.58 168.136 230.189C168.414 229.798 168.785 229.469 169.248 229.204C169.734 228.927 170.209 228.781 170.672 228.769C171.135 228.752 171.554 228.845 171.929 229.047C172.305 229.247 172.6 229.533 172.814 229.905C173.062 230.326 173.153 230.752 173.085 231.183C173.02 231.613 172.82 231.991 172.484 232.317L172.518 232.376C173.066 232.164 173.571 232.14 174.035 232.304C174.501 232.466 174.872 232.786 175.147 233.264C175.391 233.677 175.492 234.115 175.45 234.578C175.41 235.039 175.244 235.479 174.952 235.898C174.659 236.314 174.253 236.671 173.735 236.967ZM180.775 232.972C180.189 233.303 179.6 233.435 179.008 233.368C178.417 233.3 177.841 233.039 177.283 232.583C176.724 232.126 176.206 231.488 175.728 230.669C175.251 229.851 174.954 229.091 174.836 228.386C174.72 227.68 174.781 227.056 175.018 226.515C175.257 225.972 175.666 225.535 176.246 225.204C176.826 224.873 177.412 224.742 178.005 224.812C178.597 224.879 179.171 225.14 179.729 225.594C180.287 226.043 180.804 226.677 181.281 227.494C181.76 228.316 182.06 229.081 182.179 229.788C182.297 230.493 182.239 231.117 182.003 231.661C181.766 232.202 181.357 232.639 180.775 232.972ZM180.202 231.989C180.715 231.695 180.97 231.217 180.968 230.554C180.969 229.889 180.695 229.086 180.145 228.143C179.78 227.518 179.405 227.027 179.02 226.671C178.636 226.311 178.256 226.09 177.879 226.008C177.503 225.922 177.146 225.975 176.808 226.168C176.298 226.46 176.043 226.94 176.044 227.607C176.045 228.274 176.318 229.078 176.864 230.019C177.23 230.648 177.605 231.142 177.989 231.501C178.374 231.857 178.754 232.077 179.128 232.161C179.501 232.242 179.859 232.185 180.202 231.989ZM181.08 256.888C180.195 257.394 179.878 258.543 180.398 259.434C180.924 260.336 182.087 260.639 182.972 260.133C183.879 259.614 184.185 258.472 183.659 257.57C183.139 256.678 181.987 256.37 181.08 256.888ZM182.61 259.511C182.068 259.82 181.35 259.637 181.023 259.077C180.703 258.527 180.901 257.819 181.443 257.51C182.006 257.188 182.713 257.378 183.034 257.927C183.36 258.487 183.172 259.189 182.61 259.511Z" fill="#333333"/>
<path opacity="0.5" d="M265.873 238.295C265.365 238.005 264.962 237.658 264.664 237.256C264.369 236.855 264.195 236.433 264.144 235.991C264.096 235.548 264.183 235.117 264.405 234.697L265.566 235.362C265.451 235.593 265.413 235.83 265.453 236.072C265.497 236.313 265.604 236.541 265.774 236.756C265.944 236.972 266.165 237.157 266.437 237.312C266.735 237.483 267.029 237.582 267.318 237.61C267.61 237.639 267.875 237.6 268.113 237.49C268.353 237.378 268.543 237.201 268.685 236.958C268.833 236.705 268.897 236.446 268.878 236.18C268.862 235.912 268.762 235.652 268.578 235.4C268.395 235.148 268.129 234.922 267.779 234.722L267.139 234.356L267.68 233.429L268.32 233.794C268.601 233.955 268.877 234.046 269.148 234.066C269.421 234.088 269.67 234.044 269.896 233.934C270.122 233.822 270.307 233.644 270.448 233.401C270.584 233.168 270.649 232.935 270.643 232.703C270.641 232.469 270.573 232.249 270.438 232.04C270.305 231.834 270.109 231.656 269.85 231.508C269.604 231.367 269.347 231.281 269.079 231.249C268.815 231.216 268.568 231.245 268.338 231.336C268.109 231.424 267.922 231.581 267.778 231.806L266.672 231.173C266.921 230.773 267.251 230.484 267.661 230.306C268.073 230.129 268.52 230.062 269.001 230.105C269.483 230.148 269.955 230.302 270.419 230.567C270.905 230.845 271.269 231.179 271.511 231.569C271.758 231.959 271.886 232.365 271.897 232.786C271.91 233.209 271.807 233.605 271.589 233.975C271.345 234.398 271.018 234.689 270.607 234.847C270.198 235.006 269.767 235.023 269.314 234.898L269.28 234.957C269.739 235.32 270.012 235.742 270.101 236.221C270.192 236.702 270.098 237.18 269.818 237.655C269.579 238.071 269.246 238.376 268.82 238.571C268.396 238.768 267.928 238.845 267.416 238.805C266.905 238.761 266.391 238.592 265.873 238.295ZM272.887 242.335C272.304 241.998 271.894 241.559 271.657 241.018C271.42 240.477 271.362 239.853 271.481 239.146C271.601 238.439 271.9 237.675 272.378 236.855C272.854 236.038 273.371 235.403 273.928 234.949C274.488 234.497 275.064 234.237 275.656 234.169C276.25 234.103 276.837 234.236 277.416 234.567C277.996 234.899 278.403 235.336 278.639 235.88C278.876 236.421 278.935 237.044 278.817 237.749C278.703 238.452 278.407 239.213 277.931 240.03C277.451 240.852 276.932 241.491 276.374 241.947C275.816 242.401 275.241 242.663 274.648 242.733C274.056 242.8 273.469 242.668 272.887 242.335ZM273.46 241.352C273.973 241.645 274.519 241.625 275.098 241.292C275.68 240.96 276.245 240.323 276.795 239.381C277.16 238.755 277.402 238.188 277.52 237.68C277.643 237.171 277.646 236.734 277.53 236.37C277.417 236.004 277.192 235.725 276.854 235.532C276.343 235.24 275.797 235.261 275.214 235.595C274.631 235.93 274.064 236.566 273.514 237.505C273.147 238.133 272.903 238.702 272.78 239.211C272.662 239.719 272.659 240.154 272.773 240.517C272.888 240.878 273.118 241.156 273.46 241.352ZM255.636 256.564C254.751 256.057 253.588 256.36 253.068 257.252C252.543 258.154 252.859 259.302 253.745 259.808C254.651 260.326 255.803 260.018 256.329 259.116C256.849 258.224 256.543 257.082 255.636 256.564ZM254.107 259.186C253.566 258.877 253.367 258.169 253.693 257.609C254.014 257.06 254.732 256.876 255.274 257.186C255.836 257.507 256.024 258.209 255.704 258.758C255.378 259.318 254.67 259.508 254.107 259.186Z" fill="#333333"/>
<path opacity="0.5" d="M298.012 271.445C297.82 271.106 297.689 270.739 297.617 270.345C297.546 269.954 297.572 269.546 297.694 269.123C297.815 268.701 298.063 268.276 298.436 267.85C298.811 267.426 299.347 267.015 300.045 266.616C300.706 266.238 301.331 265.968 301.919 265.805C302.51 265.644 303.053 265.587 303.551 265.633C304.05 265.678 304.495 265.823 304.885 266.068C305.274 266.313 305.596 266.654 305.851 267.091C306.113 267.54 306.257 267.99 306.282 268.44C306.308 268.89 306.227 269.312 306.04 269.707C305.854 270.105 305.578 270.447 305.213 270.734L304.558 269.612C304.83 269.355 305 269.057 305.068 268.717C305.136 268.377 305.064 268.025 304.852 267.662C304.53 267.11 304.037 266.817 303.374 266.784C302.711 266.754 301.949 266.984 301.087 267.473L301.119 267.528C301.41 267.536 301.685 267.591 301.946 267.694C302.21 267.798 302.452 267.945 302.671 268.134C302.893 268.324 303.081 268.55 303.234 268.813C303.489 269.25 303.612 269.706 303.604 270.182C303.599 270.659 303.471 271.11 303.219 271.536C302.967 271.961 302.6 272.312 302.116 272.588C301.633 272.865 301.131 273.006 300.612 273.012C300.094 273.02 299.606 272.893 299.147 272.632C298.691 272.369 298.313 271.973 298.012 271.445ZM298.971 270.892C299.14 271.181 299.363 271.399 299.639 271.546C299.915 271.692 300.212 271.762 300.531 271.757C300.85 271.751 301.159 271.663 301.457 271.492C301.748 271.326 301.976 271.109 302.139 270.843C302.304 270.578 302.391 270.293 302.4 269.987C302.41 269.683 302.332 269.388 302.164 269.101C302.037 268.882 301.877 268.704 301.684 268.565C301.493 268.429 301.283 268.333 301.053 268.278C300.824 268.223 300.589 268.209 300.349 268.238C300.114 268.268 299.89 268.344 299.678 268.465C299.394 268.628 299.169 268.843 299.003 269.111C298.839 269.382 298.749 269.673 298.734 269.986C298.723 270.3 298.802 270.602 298.971 270.892ZM302.009 278.352C301.672 277.769 301.537 277.184 301.602 276.597C301.668 276.009 301.929 275.44 302.386 274.887C302.843 274.334 303.484 273.823 304.307 273.352C305.129 272.882 305.894 272.59 306.603 272.476C307.314 272.364 307.943 272.427 308.489 272.664C309.037 272.904 309.479 273.313 309.815 273.889C310.151 274.466 310.285 275.049 310.218 275.637C310.152 276.224 309.892 276.794 309.437 277.345C308.987 277.897 308.351 278.408 307.529 278.877C306.703 279.35 305.934 279.644 305.222 279.759C304.513 279.874 303.884 279.813 303.335 279.577C302.789 279.339 302.347 278.931 302.009 278.352ZM302.997 277.787C303.294 278.298 303.777 278.553 304.445 278.554C305.115 278.558 305.923 278.289 306.87 277.747C307.499 277.388 307.992 277.018 308.349 276.637C308.71 276.257 308.931 275.881 309.012 275.507C309.097 275.134 309.042 274.78 308.846 274.443C308.549 273.935 308.065 273.68 307.393 273.678C306.721 273.677 305.912 273.944 304.966 274.482C304.335 274.843 303.839 275.213 303.478 275.593C303.121 275.973 302.902 276.349 302.819 276.721C302.739 277.091 302.798 277.446 302.997 277.787ZM279.982 282.095C279.468 281.214 278.31 280.895 277.414 281.407C276.507 281.925 276.207 283.078 276.721 283.959C277.247 284.861 278.399 285.17 279.305 284.652C280.201 284.139 280.508 282.997 279.982 282.095ZM277.346 283.602C277.032 283.063 277.214 282.35 277.776 282.029C278.328 281.713 279.042 281.913 279.357 282.452C279.683 283.012 279.495 283.714 278.943 284.03C278.38 284.351 277.672 284.161 277.346 283.602Z" fill="#333333"/>
<path opacity="0.5" d="M134.486 275.432C134.191 275.938 133.84 276.339 133.433 276.637C133.028 276.932 132.602 277.106 132.157 277.159C131.711 277.208 131.277 277.124 130.855 276.905L131.529 275.749C131.762 275.863 132 275.899 132.244 275.859C132.487 275.815 132.717 275.707 132.935 275.537C133.152 275.367 133.34 275.147 133.497 274.877C133.671 274.58 133.772 274.288 133.801 274C133.832 273.711 133.793 273.448 133.684 273.212C133.572 272.975 133.395 272.786 133.15 272.647C132.896 272.501 132.635 272.439 132.367 272.459C132.098 272.475 131.835 272.575 131.58 272.76C131.326 272.942 131.097 273.207 130.894 273.556L130.523 274.192L129.59 273.66L129.962 273.023C130.125 272.743 130.217 272.469 130.239 272.2C130.263 271.928 130.219 271.681 130.109 271.458C129.997 271.233 129.819 271.051 129.575 270.912C129.34 270.778 129.106 270.714 128.872 270.721C128.637 270.724 128.414 270.793 128.204 270.928C127.995 271.061 127.815 271.256 127.665 271.513C127.522 271.759 127.434 272.014 127.401 272.28C127.366 272.542 127.394 272.787 127.485 273.015C127.573 273.242 127.73 273.427 127.956 273.569L127.314 274.67C126.912 274.424 126.622 274.098 126.444 273.692C126.268 273.283 126.203 272.84 126.248 272.362C126.293 271.884 126.45 271.414 126.719 270.953C127.001 270.469 127.339 270.107 127.734 269.864C128.127 269.618 128.537 269.489 128.961 269.476C129.388 269.461 129.786 269.562 130.157 269.777C130.583 270.017 130.874 270.341 131.031 270.748C131.19 271.153 131.205 271.58 131.078 272.031L131.137 272.065C131.505 271.608 131.931 271.334 132.414 271.244C132.899 271.152 133.38 271.243 133.857 271.519C134.275 271.755 134.582 272.084 134.776 272.506C134.972 272.926 135.049 273.39 135.005 273.898C134.959 274.406 134.786 274.917 134.486 275.432ZM138.585 268.452C138.243 269.033 137.8 269.442 137.253 269.679C136.707 269.916 136.078 269.977 135.366 269.862C134.654 269.746 133.886 269.452 133.063 268.982C132.241 268.512 131.603 268.002 131.149 267.451C130.696 266.897 130.436 266.326 130.371 265.739C130.307 265.15 130.443 264.567 130.779 263.99C131.115 263.413 131.558 263.007 132.107 262.771C132.653 262.533 133.281 262.472 133.99 262.586C134.698 262.696 135.463 262.986 136.285 263.456C137.111 263.928 137.752 264.441 138.21 264.993C138.664 265.544 138.926 266.114 138.993 266.703C139.059 267.29 138.923 267.873 138.585 268.452ZM137.597 267.888C137.895 267.377 137.877 266.835 137.544 266.262C137.212 265.686 136.573 265.128 135.626 264.586C134.997 264.227 134.427 263.989 133.915 263.873C133.403 263.754 132.963 263.753 132.595 263.87C132.227 263.983 131.944 264.208 131.748 264.544C131.452 265.052 131.471 265.595 131.806 266.172C132.14 266.749 132.779 267.309 133.722 267.851C134.353 268.212 134.925 268.453 135.437 268.572C135.949 268.688 136.387 268.688 136.753 268.574C137.117 268.457 137.398 268.229 137.597 267.888ZM142.668 261.45C142.326 262.03 141.883 262.439 141.336 262.676C140.79 262.914 140.161 262.975 139.449 262.859C138.737 262.743 137.97 262.45 137.146 261.979C136.324 261.509 135.686 260.999 135.232 260.448C134.779 259.894 134.519 259.324 134.454 258.737C134.39 258.147 134.526 257.564 134.862 256.987C135.198 256.41 135.641 256.004 136.19 255.768C136.736 255.53 137.364 255.469 138.073 255.583C138.781 255.694 139.546 255.984 140.368 256.453C141.194 256.926 141.835 257.438 142.293 257.991C142.747 258.542 143.009 259.112 143.077 259.7C143.142 260.287 143.006 260.871 142.668 261.45ZM141.68 260.885C141.978 260.375 141.96 259.833 141.627 259.259C141.295 258.683 140.656 258.125 139.709 257.583C139.08 257.224 138.51 256.986 137.998 256.871C137.486 256.751 137.046 256.75 136.678 256.867C136.31 256.98 136.027 257.205 135.831 257.541C135.535 258.049 135.554 258.592 135.889 259.169C136.223 259.746 136.862 260.306 137.805 260.849C138.436 261.21 139.008 261.45 139.52 261.569C140.032 261.685 140.47 261.685 140.837 261.571C141.2 261.455 141.481 261.226 141.68 260.885ZM154.887 282.014C154.374 282.896 154.674 284.049 155.57 284.561C156.476 285.079 157.634 284.76 158.148 283.879C158.674 282.977 158.368 281.834 157.461 281.316C156.566 280.804 155.413 281.113 154.887 282.014ZM157.523 283.521C157.209 284.06 156.495 284.26 155.932 283.939C155.38 283.623 155.198 282.911 155.512 282.372C155.839 281.812 156.547 281.622 157.099 281.938C157.661 282.26 157.849 282.961 157.523 283.521Z" fill="#333333"/>
<path opacity="0.5" d="M140.249 369.071L139.421 369.545L135.277 368.513C134.83 368.405 134.446 368.325 134.126 368.272C133.802 368.219 133.516 368.204 133.267 368.229C133.018 368.253 132.782 368.329 132.561 368.456C132.309 368.599 132.126 368.782 132.012 369.005C131.896 369.228 131.848 369.47 131.868 369.73C131.886 369.992 131.969 370.25 132.118 370.505C132.275 370.775 132.468 370.979 132.696 371.117C132.925 371.255 133.172 371.32 133.437 371.312C133.702 371.304 133.97 371.223 134.242 371.068L134.875 372.154C134.413 372.418 133.949 372.543 133.48 372.529C133.012 372.515 132.576 372.379 132.171 372.119C131.764 371.861 131.424 371.497 131.151 371.029C130.874 370.555 130.726 370.084 130.706 369.614C130.681 369.144 130.772 368.714 130.979 368.324C131.184 367.936 131.489 367.625 131.896 367.392C132.177 367.232 132.483 367.127 132.813 367.079C133.142 367.028 133.547 367.037 134.028 367.106C134.506 367.176 135.113 367.307 135.85 367.498L138.299 368.095L138.355 368.064L136.376 364.669L137.356 364.109L140.249 369.071ZM135.068 363.569L134.143 364.098L127.072 363.797L126.649 363.071L128.01 362.293L128.279 362.753L133.344 362.964L133.403 362.93L130.8 358.465L131.769 357.911L135.068 363.569ZM134.464 359.148L132.703 360.155L132.277 360.389L126.883 363.473L126.254 362.394L133.831 358.063L134.464 359.148ZM130.915 352.774C131.252 353.357 131.387 353.942 131.322 354.53C131.256 355.117 130.995 355.687 130.538 356.239C130.081 356.792 129.44 357.304 128.617 357.774C127.795 358.244 127.03 358.536 126.32 358.65C125.61 358.762 124.981 358.699 124.435 358.462C123.887 358.222 123.445 357.814 123.109 357.237C122.773 356.66 122.639 356.077 122.706 355.489C122.772 354.902 123.032 354.333 123.487 353.781C123.937 353.229 124.573 352.718 125.395 352.249C126.221 351.776 126.99 351.482 127.702 351.367C128.411 351.252 129.04 351.313 129.589 351.549C130.135 351.787 130.577 352.195 130.915 352.774ZM129.927 353.339C129.629 352.828 129.147 352.573 128.479 352.572C127.809 352.568 127.001 352.838 126.054 353.379C125.425 353.739 124.932 354.109 124.575 354.489C124.214 354.869 123.993 355.246 123.912 355.619C123.827 355.992 123.882 356.346 124.078 356.683C124.374 357.191 124.859 357.446 125.531 357.448C126.203 357.45 127.012 357.182 127.958 356.644C128.589 356.283 129.085 355.913 129.446 355.533C129.802 355.153 130.022 354.777 130.105 354.405C130.185 354.036 130.126 353.68 129.927 353.339ZM154.895 352.381C155.409 353.262 156.567 353.581 157.463 353.069C158.37 352.551 158.67 351.398 158.156 350.517C157.63 349.615 156.478 349.306 155.571 349.824C154.676 350.336 154.369 351.479 154.895 352.381ZM157.531 350.874C157.845 351.413 157.663 352.125 157.101 352.447C156.549 352.762 155.835 352.562 155.52 352.023C155.194 351.464 155.382 350.762 155.934 350.446C156.497 350.124 157.205 350.314 157.531 350.874Z" fill="#333333"/>
<path opacity="0.5" d="M307.483 364.334L299.906 360.002L300.572 358.861L307.002 362.537L307.027 362.493L306.895 360.012L307.99 360.638L308.129 363.226L307.483 364.334ZM298.536 362.353L299.365 362.827L300.533 366.896C300.663 367.334 300.785 367.703 300.899 368.004C301.014 368.308 301.144 368.561 301.29 368.762C301.436 368.963 301.62 369.127 301.842 369.254C302.093 369.398 302.345 369.463 302.596 369.45C302.85 369.438 303.085 369.358 303.303 369.211C303.523 369.065 303.707 368.864 303.856 368.609C304.013 368.339 304.095 368.072 304.101 367.807C304.108 367.542 304.041 367.298 303.902 367.075C303.763 366.851 303.557 366.662 303.286 366.507L303.919 365.421C304.38 365.684 304.722 366.02 304.944 366.429C305.167 366.837 305.265 367.28 305.241 367.757C305.218 368.235 305.071 368.708 304.797 369.177C304.521 369.651 304.183 370.013 303.783 370.266C303.383 370.522 302.962 370.659 302.517 370.676C302.075 370.695 301.651 370.588 301.244 370.356C300.963 370.195 300.719 369.985 300.511 369.726C300.303 369.469 300.108 369.117 299.928 368.671C299.75 368.225 299.561 367.639 299.36 366.913L298.657 364.513L298.602 364.482L296.623 367.876L295.643 367.315L298.536 362.353ZM292.992 371.574C293.333 370.994 293.777 370.585 294.323 370.348C294.869 370.11 295.499 370.049 296.21 370.165C296.922 370.281 297.69 370.574 298.514 371.045C299.335 371.515 299.973 372.025 300.428 372.576C300.881 373.13 301.14 373.7 301.206 374.287C301.27 374.877 301.134 375.46 300.797 376.037C300.461 376.614 300.019 377.02 299.47 377.256C298.924 377.494 298.296 377.555 297.587 377.441C296.878 377.33 296.113 377.04 295.292 376.571C294.466 376.099 293.824 375.586 293.367 375.033C292.912 374.482 292.651 373.912 292.583 373.324C292.518 372.737 292.654 372.154 292.992 371.574ZM293.979 372.139C293.682 372.65 293.699 373.191 294.033 373.765C294.365 374.341 295.004 374.899 295.951 375.441C296.58 375.8 297.15 376.038 297.661 376.153C298.174 376.273 298.614 376.274 298.981 376.157C299.35 376.044 299.632 375.819 299.828 375.483C300.124 374.975 300.105 374.432 299.771 373.855C299.437 373.278 298.798 372.718 297.855 372.175C297.224 371.814 296.652 371.574 296.139 371.455C295.628 371.339 295.189 371.339 294.823 371.453C294.459 371.569 294.178 371.798 293.979 372.139ZM280.155 352.068C280.669 351.186 280.369 350.033 279.473 349.521C278.567 349.003 277.408 349.322 276.895 350.203C276.369 351.105 276.675 352.248 277.581 352.766C278.477 353.278 279.63 352.969 280.155 352.068ZM277.52 350.561C277.834 350.022 278.548 349.822 279.111 350.143C279.663 350.459 279.845 351.171 279.53 351.71C279.204 352.27 278.496 352.46 277.944 352.144C277.381 351.822 277.193 351.121 277.52 350.561Z" fill="#333333"/>
<path opacity="0.5" d="M177.365 400.992L176.813 401.771L172.62 402.587C172.169 402.678 171.787 402.768 171.475 402.856C171.158 402.944 170.893 403.052 170.677 403.179C170.462 403.306 170.281 403.474 170.133 403.683C169.966 403.92 169.877 404.163 169.868 404.412C169.857 404.664 169.916 404.903 170.044 405.13C170.17 405.36 170.355 405.558 170.598 405.727C170.855 405.905 171.116 406.008 171.381 406.036C171.646 406.065 171.897 406.019 172.135 405.9C172.372 405.781 172.581 405.594 172.761 405.339L173.794 406.056C173.487 406.489 173.119 406.799 172.688 406.984C172.258 407.17 171.805 407.231 171.328 407.166C170.85 407.105 170.388 406.919 169.942 406.61C169.491 406.297 169.158 405.933 168.941 405.516C168.72 405.101 168.621 404.672 168.644 404.232C168.665 403.794 168.811 403.383 169.081 403C169.268 402.736 169.501 402.512 169.78 402.329C170.057 402.144 170.428 401.981 170.893 401.84C171.356 401.702 171.962 401.564 172.71 401.426L175.184 400.932L175.221 400.879L171.992 398.641L172.644 397.719L177.365 400.992ZM163.261 401.832L168.3 394.707L169.385 395.459L165.109 401.506L165.151 401.536L167.655 401.612L166.926 402.642L164.315 402.563L163.261 401.832ZM163.651 391.307C164.202 391.693 164.573 392.166 164.761 392.725C164.95 393.285 164.954 393.911 164.773 394.605C164.592 395.299 164.228 396.033 163.68 396.808C163.134 397.58 162.563 398.168 161.968 398.572C161.371 398.973 160.775 399.182 160.179 399.198C159.581 399.212 159.008 399.029 158.459 398.648C157.911 398.268 157.543 397.797 157.355 397.235C157.167 396.675 157.162 396.05 157.341 395.358C157.517 394.668 157.877 393.936 158.424 393.164C158.973 392.386 159.546 391.795 160.143 391.389C160.737 390.986 161.333 390.775 161.931 390.757C162.526 390.742 163.1 390.925 163.651 391.307ZM162.994 392.236C162.508 391.899 161.962 391.872 161.356 392.153C160.748 392.433 160.128 393.018 159.499 393.909C159.08 394.5 158.79 395.044 158.627 395.54C158.461 396.036 158.42 396.471 158.504 396.844C158.584 397.217 158.784 397.515 159.104 397.737C159.587 398.072 160.134 398.098 160.744 397.816C161.354 397.534 161.974 396.949 162.605 396.063C163.025 395.469 163.318 394.924 163.485 394.427C163.647 393.932 163.688 393.498 163.606 393.127C163.522 392.758 163.318 392.461 162.994 392.236ZM184.408 380.25C185.246 380.831 186.431 380.63 187.027 379.788C187.63 378.935 187.415 377.764 186.577 377.183C185.719 376.588 184.543 376.795 183.941 377.648C183.345 378.49 183.55 379.655 184.408 380.25ZM186.161 377.771C186.674 378.126 186.81 378.848 186.436 379.377C186.068 379.897 185.337 380.017 184.824 379.662C184.291 379.292 184.165 378.577 184.532 378.058C184.906 377.529 185.628 377.401 186.161 377.771Z" fill="#333333"/>
<path opacity="0.5" d="M270.202 403.019L265.163 395.894L266.249 395.141L270.525 401.188L270.567 401.159L271.496 398.856L272.224 399.886L271.256 402.288L270.202 403.019ZM260.491 398.988C260.93 398.683 261.384 398.493 261.852 398.418C262.32 398.346 262.762 398.385 263.178 398.536C263.594 398.686 263.942 398.946 264.224 399.314L263.173 400.042C262.931 399.754 262.616 399.597 262.23 399.571C261.843 399.546 261.476 399.653 261.131 399.892C260.855 400.083 260.656 400.315 260.532 400.588C260.407 400.864 260.363 401.156 260.399 401.463C260.433 401.771 260.551 402.068 260.752 402.353C260.957 402.643 261.203 402.858 261.49 402.998C261.777 403.138 262.077 403.196 262.391 403.172C262.702 403.15 263.001 403.041 263.287 402.846C263.505 402.696 263.697 402.507 263.864 402.281C264.031 402.054 264.139 401.834 264.189 401.619L265.284 401.078L267.42 404.948L263.477 407.682L262.825 406.76L265.868 404.65L264.686 402.499L264.644 402.528C264.599 402.76 264.493 403.001 264.326 403.251C264.156 403.504 263.938 403.722 263.672 403.907C263.236 404.209 262.774 404.376 262.287 404.406C261.798 404.437 261.329 404.342 260.88 404.121C260.431 403.904 260.044 403.563 259.72 403.1C259.391 402.64 259.205 402.156 259.162 401.647C259.116 401.139 259.206 400.651 259.432 400.184C259.657 399.72 260.01 399.321 260.491 398.988ZM253.936 403.502C254.491 403.121 255.066 402.938 255.662 402.953C256.257 402.969 256.853 403.18 257.45 403.585C258.046 403.991 258.619 404.581 259.166 405.356C259.713 406.128 260.075 406.86 260.255 407.552C260.432 408.245 260.426 408.871 260.237 409.431C260.046 409.992 259.676 410.463 259.127 410.843C258.579 411.224 258.006 411.405 257.408 411.387C256.813 411.371 256.217 411.162 255.623 410.758C255.027 410.359 254.456 409.773 253.91 409.001C253.36 408.224 252.995 407.488 252.814 406.794C252.635 406.103 252.639 405.476 252.826 404.914C253.015 404.355 253.385 403.884 253.936 403.502ZM254.593 404.431C254.107 404.768 253.894 405.266 253.954 405.926C254.011 406.588 254.355 407.364 254.985 408.255C255.403 408.847 255.82 409.303 256.235 409.624C256.649 409.948 257.047 410.135 257.43 410.185C257.812 410.238 258.163 410.153 258.483 409.932C258.966 409.597 259.178 409.097 259.119 408.433C259.06 407.769 258.717 406.991 258.091 406.101C257.671 405.508 257.254 405.048 256.84 404.724C256.426 404.403 256.028 404.217 255.648 404.166C255.269 404.118 254.917 404.206 254.593 404.431ZM250.576 380.382C251.414 379.801 251.629 378.63 251.033 377.787C250.43 376.935 249.245 376.734 248.407 377.315C247.549 377.91 247.344 379.075 247.946 379.927C248.542 380.77 249.718 380.977 250.576 380.382ZM248.823 377.903C249.335 377.548 250.067 377.668 250.441 378.197C250.809 378.717 250.673 379.439 250.16 379.794C249.627 380.163 248.905 380.036 248.538 379.517C248.164 378.988 248.29 378.273 248.823 377.903Z" fill="#333333"/>
<path d="M222.752 173.123V190.578H220.332L211.459 177.777H211.298V190.578H208.664V173.123H211.101L219.982 185.941H220.144V173.123H222.752Z" fill="#F70000"/>
<path d="M352.916 327.199V309.745H363.859V312.012H355.549V317.33H363.288V319.589H355.549V324.932H363.961V327.199H352.916Z" fill="#47515C"/>
<path d="M219.262 457.333C219.172 456.527 218.797 455.902 218.137 455.458C217.478 455.01 216.649 454.785 215.649 454.785C214.933 454.785 214.314 454.899 213.791 455.126C213.268 455.348 212.862 455.654 212.572 456.047C212.288 456.433 212.146 456.873 212.146 457.368C212.146 457.782 212.243 458.14 212.436 458.441C212.635 458.743 212.893 458.995 213.211 459.2C213.535 459.399 213.882 459.566 214.251 459.703C214.62 459.833 214.976 459.941 215.316 460.027L217.021 460.47C217.578 460.606 218.149 460.791 218.734 461.024C219.319 461.257 219.862 461.564 220.362 461.944C220.862 462.325 221.265 462.797 221.572 463.359C221.885 463.922 222.041 464.595 222.041 465.379C222.041 466.368 221.785 467.245 221.274 468.012C220.768 468.779 220.032 469.385 219.066 469.828C218.106 470.271 216.944 470.493 215.581 470.493C214.274 470.493 213.143 470.285 212.189 469.87C211.234 469.456 210.487 468.868 209.947 468.106C209.407 467.339 209.109 466.43 209.052 465.379H211.694C211.745 466.01 211.95 466.535 212.308 466.956C212.672 467.37 213.135 467.68 213.697 467.885C214.265 468.083 214.887 468.183 215.564 468.183C216.308 468.183 216.97 468.066 217.549 467.833C218.135 467.595 218.595 467.265 218.93 466.845C219.265 466.419 219.433 465.922 219.433 465.353C219.433 464.836 219.285 464.413 218.99 464.083C218.7 463.754 218.305 463.481 217.805 463.265C217.311 463.049 216.751 462.859 216.126 462.694L214.064 462.132C212.666 461.751 211.558 461.191 210.74 460.453C209.927 459.714 209.521 458.737 209.521 457.521C209.521 456.515 209.794 455.637 210.339 454.887C210.885 454.137 211.623 453.555 212.555 453.14C213.487 452.72 214.538 452.51 215.708 452.51C216.89 452.51 217.933 452.717 218.836 453.132C219.745 453.547 220.461 454.118 220.984 454.845C221.507 455.566 221.78 456.396 221.802 457.333H219.262Z" fill="#47515C"/>
<path d="M67.6237 329.481L62.7828 312.026H65.5526L68.9532 325.543H69.1151L72.6521 312.026H75.3964L78.9333 325.552H79.0953L82.4873 312.026H85.2657L80.4163 329.481H77.7657L74.0924 316.407H73.9561L70.2828 329.481H67.6237Z" fill="#47515C"/>
<path d="M217.443 418.952V408.479H219.34V417.106H219.402L221.851 415.541V417.28L219.248 418.952H217.443ZM210.629 408.336C211.39 408.336 212.065 408.464 212.654 408.719C213.241 408.975 213.701 409.325 214.035 409.768C214.366 410.214 214.529 410.721 214.526 411.286C214.529 411.726 214.434 412.13 214.24 412.498C214.045 412.867 213.783 413.173 213.452 413.419C213.118 413.668 212.746 413.826 212.337 413.894V413.966C212.876 414.085 213.312 414.36 213.646 414.789C213.977 415.222 214.141 415.722 214.137 416.288C214.141 416.826 213.991 417.307 213.687 417.73C213.384 418.152 212.968 418.485 212.44 418.727C211.911 418.972 211.308 419.095 210.629 419.095C209.958 419.095 209.359 418.972 208.834 418.727C208.306 418.485 207.89 418.152 207.587 417.73C207.28 417.307 207.126 416.826 207.126 416.288C207.126 415.722 207.295 415.222 207.633 414.789C207.967 414.36 208.398 414.085 208.926 413.966V413.894C208.517 413.826 208.149 413.668 207.822 413.419C207.491 413.173 207.229 412.867 207.034 412.498C206.837 412.13 206.738 411.726 206.738 411.286C206.738 410.721 206.905 410.214 207.239 409.768C207.573 409.325 208.033 408.975 208.62 408.719C209.203 408.464 209.873 408.336 210.629 408.336ZM210.629 409.798C210.237 409.798 209.896 409.865 209.607 409.998C209.317 410.134 209.092 410.325 208.932 410.571C208.771 410.816 208.69 411.099 208.686 411.419C208.69 411.754 208.776 412.048 208.947 412.304C209.114 412.563 209.344 412.766 209.637 412.913C209.927 413.059 210.258 413.133 210.629 413.133C211.004 413.133 211.338 413.059 211.632 412.913C211.925 412.766 212.157 412.563 212.327 412.304C212.494 412.048 212.576 411.754 212.573 411.419C212.576 411.099 212.498 410.816 212.337 410.571C212.177 410.329 211.952 410.139 211.662 410.003C211.369 409.867 211.025 409.798 210.629 409.798ZM210.629 414.569C210.309 414.569 210.026 414.634 209.78 414.764C209.532 414.893 209.336 415.074 209.192 415.306C209.049 415.538 208.976 415.805 208.973 416.109C208.976 416.409 209.048 416.671 209.187 416.896C209.327 417.125 209.521 417.3 209.77 417.423C210.019 417.549 210.305 417.612 210.629 417.612C210.96 417.612 211.251 417.549 211.504 417.423C211.753 417.3 211.947 417.125 212.087 416.896C212.223 416.671 212.29 416.409 212.286 416.109C212.29 415.805 212.221 415.538 212.082 415.306C211.938 415.077 211.742 414.897 211.494 414.764C211.241 414.634 210.953 414.569 210.629 414.569ZM200.754 408.28C201.596 408.28 202.319 408.493 202.922 408.919C203.522 409.348 203.984 409.967 204.308 410.775C204.628 411.586 204.788 412.563 204.788 413.705C204.785 414.847 204.623 415.819 204.303 416.62C203.979 417.425 203.517 418.038 202.917 418.461C202.313 418.884 201.592 419.095 200.754 419.095C199.915 419.095 199.194 418.884 198.591 418.461C197.987 418.038 197.525 417.425 197.205 416.62C196.881 415.815 196.719 414.844 196.719 413.705C196.719 412.56 196.881 411.581 197.205 410.77C197.525 409.962 197.987 409.345 198.591 408.919C199.191 408.493 199.912 408.28 200.754 408.28ZM200.754 409.88C200.099 409.88 199.583 410.202 199.204 410.847C198.822 411.494 198.632 412.447 198.632 413.705C198.632 414.537 198.719 415.236 198.892 415.802C199.066 416.368 199.312 416.794 199.629 417.08C199.946 417.37 200.321 417.515 200.754 417.515C201.405 417.515 201.92 417.191 202.298 416.543C202.676 415.899 202.867 414.953 202.871 413.705C202.874 412.87 202.791 412.168 202.62 411.598C202.446 411.029 202.201 410.6 201.884 410.31C201.567 410.023 201.19 409.88 200.754 409.88ZM213.713 383.007C214.937 383.007 215.959 381.999 215.959 380.761C215.959 379.508 214.937 378.5 213.713 378.5C212.46 378.5 211.452 379.508 211.452 380.761C211.452 381.999 212.46 383.007 213.713 383.007ZM213.713 379.364C214.462 379.364 215.095 379.983 215.095 380.761C215.095 381.524 214.462 382.143 213.713 382.143C212.935 382.143 212.316 381.524 212.316 380.761C212.316 379.983 212.935 379.364 213.713 379.364Z" fill="#333333"/>
<path d="M127.692 324.258L126.321 324.258L122.757 320.623C122.406 320.275 122.094 319.985 121.821 319.753C121.548 319.521 121.284 319.348 121.028 319.232C120.773 319.116 120.5 319.058 120.21 319.058C119.88 319.058 119.597 319.133 119.361 319.283C119.123 319.433 118.939 319.639 118.809 319.902C118.68 320.164 118.615 320.462 118.615 320.796C118.615 321.141 118.686 321.442 118.83 321.702C118.969 321.961 119.169 322.162 119.428 322.305C119.687 322.445 119.996 322.515 120.353 322.515L120.353 324.32C119.689 324.32 119.111 324.168 118.62 323.865C118.129 323.561 117.749 323.144 117.48 322.612C117.21 322.077 117.076 321.463 117.076 320.771C117.076 320.069 117.207 319.452 117.469 318.92C117.732 318.388 118.092 317.975 118.548 317.682C119.005 317.386 119.527 317.237 120.113 317.237C120.505 317.237 120.89 317.312 121.269 317.462C121.647 317.612 122.067 317.877 122.527 318.255C122.987 318.63 123.544 319.157 124.199 319.835L126.035 321.64L126.106 321.64L126.106 317.079L127.692 317.079L127.692 324.258ZM127.692 314.499L118.876 310.045L118.804 310.045L118.804 315.215L117.219 315.215L117.219 308.081L118.84 308.081L127.692 312.53L127.692 314.499ZM127.891 302.353C127.891 303.195 127.678 303.918 127.252 304.521C126.822 305.121 126.203 305.583 125.396 305.907C124.584 306.227 123.607 306.388 122.465 306.388C121.323 306.384 120.352 306.222 119.551 305.902C118.746 305.578 118.132 305.116 117.71 304.516C117.287 303.913 117.076 303.192 117.076 302.353C117.076 301.514 117.287 300.793 117.71 300.19C118.132 299.587 118.746 299.125 119.551 298.804C120.355 298.48 121.327 298.318 122.465 298.318C123.611 298.318 124.589 298.48 125.401 298.804C126.209 299.125 126.826 299.587 127.252 300.19C127.678 300.79 127.891 301.511 127.891 302.353ZM126.29 302.353C126.29 301.698 125.968 301.182 125.324 300.804C124.676 300.422 123.723 300.231 122.465 300.231C121.634 300.231 120.935 300.318 120.369 300.492C119.803 300.666 119.377 300.911 119.09 301.228C118.801 301.545 118.656 301.92 118.656 302.353C118.656 303.004 118.98 303.519 119.627 303.897C120.272 304.276 121.218 304.467 122.465 304.47C123.301 304.473 124.003 304.39 124.572 304.219C125.142 304.046 125.571 303.8 125.861 303.483C126.147 303.166 126.29 302.789 126.29 302.353ZM153.164 315.79C153.164 317.014 154.172 318.037 155.41 318.037C156.663 318.037 157.671 317.014 157.671 315.79C157.671 314.538 156.663 313.53 155.41 313.53C154.172 313.53 153.164 314.538 153.164 315.79ZM156.807 315.79C156.807 316.539 156.188 317.173 155.41 317.173C154.647 317.173 154.028 316.539 154.028 315.79C154.028 315.013 154.647 314.394 155.41 314.394C156.188 314.394 156.807 315.013 156.807 315.79Z" fill="#333333"/>
<path d="M318.954 316.678C318.951 317.179 318.862 317.667 318.689 318.141C318.518 318.618 318.239 319.047 317.85 319.429C317.465 319.811 316.948 320.114 316.3 320.339C315.653 320.564 314.852 320.677 313.897 320.677C312.997 320.68 312.192 320.585 311.483 320.391C310.778 320.2 310.181 319.925 309.694 319.567C309.206 319.209 308.835 318.778 308.579 318.274C308.323 317.769 308.195 317.201 308.195 316.571C308.195 315.909 308.325 315.323 308.584 314.812C308.843 314.304 309.198 313.893 309.648 313.579C310.098 313.266 310.612 313.073 311.192 313.001L311.192 314.868C310.776 314.963 310.445 315.158 310.2 315.451C309.958 315.747 309.837 316.121 309.837 316.571C309.837 317.297 310.152 317.856 310.783 318.248C311.414 318.64 312.29 318.836 313.411 318.836L313.411 318.764C313.111 318.597 312.852 318.381 312.634 318.115C312.419 317.849 312.254 317.547 312.138 317.21C312.022 316.876 311.964 316.521 311.964 316.146C311.964 315.533 312.111 314.98 312.404 314.489C312.697 314.002 313.099 313.615 313.611 313.329C314.122 313.046 314.707 312.903 315.365 312.899C316.046 312.899 316.658 313.056 317.2 313.37C317.746 313.687 318.175 314.128 318.489 314.694C318.806 315.26 318.961 315.921 318.954 316.678ZM317.42 316.683C317.42 316.315 317.33 315.983 317.149 315.686C316.972 315.393 316.73 315.161 316.423 314.991C316.12 314.824 315.781 314.74 315.406 314.74C315.034 314.743 314.696 314.827 314.393 314.991C314.09 315.158 313.849 315.384 313.672 315.671C313.495 315.96 313.406 316.291 313.406 316.663C313.406 316.939 313.459 317.196 313.565 317.435C313.67 317.674 313.817 317.881 314.004 318.059C314.195 318.239 314.412 318.379 314.654 318.478C314.896 318.58 315.152 318.63 315.421 318.626C315.779 318.626 316.11 318.541 316.413 318.371C316.716 318.204 316.96 317.974 317.144 317.68C317.328 317.391 317.42 317.058 317.42 316.683ZM308.139 326.683C308.139 325.841 308.352 325.118 308.778 324.515C309.208 323.915 309.827 323.453 310.635 323.129C311.446 322.808 312.423 322.648 313.565 322.648C314.707 322.652 315.678 322.813 316.479 323.134C317.284 323.458 317.898 323.92 318.32 324.52C318.743 325.123 318.954 325.844 318.954 326.683C318.954 327.521 318.743 328.242 318.32 328.846C317.898 329.449 317.284 329.911 316.479 330.232C315.675 330.556 314.703 330.717 313.565 330.717C312.419 330.717 311.441 330.556 310.629 330.232C309.821 329.911 309.204 329.449 308.778 328.846C308.352 328.246 308.139 327.525 308.139 326.683ZM309.74 326.683C309.74 327.337 310.062 327.854 310.706 328.232C311.354 328.614 312.307 328.805 313.565 328.805C314.396 328.805 315.095 328.718 315.661 328.544C316.227 328.37 316.653 328.125 316.94 327.808C317.229 327.491 317.374 327.116 317.374 326.683C317.374 326.032 317.05 325.517 316.403 325.138C315.758 324.76 314.812 324.569 313.565 324.566C312.729 324.562 312.027 324.646 311.458 324.816C310.889 324.99 310.459 325.236 310.169 325.553C309.883 325.87 309.74 326.246 309.74 326.683ZM282.867 317.378C282.867 316.154 281.859 315.131 280.62 315.132C279.367 315.132 278.359 316.154 278.359 317.378C278.359 318.631 279.367 319.639 280.62 319.639C281.859 319.639 282.867 318.631 282.867 317.378ZM279.223 317.378C279.223 316.629 279.843 315.996 280.62 315.996C281.383 315.996 282.003 316.629 282.003 317.378C282.003 318.156 281.383 318.775 280.62 318.775C279.843 318.775 279.223 318.156 279.223 317.378Z" fill="#333333"/>
<g filter="url(#filter4_d_20_316)">
<ellipse cx="150.708" cy="335.323" rx="11.3554" ry="11.2441" fill="#FF5C32"/>
</g>
<g filter="url(#filter5_f_20_316)">
<ellipse cx="150.872" cy="335.323" rx="7.24111" ry="6.68128" fill="#FFFBF4"/>
</g>
<path fill-rule="evenodd" clip-rule="evenodd" d="M215.712 194.628H214.395V210.924H215.712V194.628ZM215.712 424.069H214.395V440.365H215.712V424.069Z" fill="#FF5C32"/>
<path fill-rule="evenodd" clip-rule="evenodd" d="M93.6019 316.193V317.497H110.059V316.193H93.6019ZM325.643 316.193V317.497H342.1V316.193H325.643Z" fill="#FF5C32"/>
<path fill-rule="evenodd" clip-rule="evenodd" d="M109.92 377.796L110.578 378.925L124.83 370.777L124.172 369.648L109.92 377.796ZM310.872 262.912L311.53 264.041L325.783 255.893L325.124 254.764L310.872 262.912Z" fill="#47515C" fill-opacity="0.5"/>
<path fill-rule="evenodd" clip-rule="evenodd" d="M155.157 423.067L156.297 423.719L164.526 409.606L163.385 408.954L155.157 423.067ZM271.177 224.083L272.317 224.735L280.546 210.622L279.406 209.97L271.177 224.083Z" fill="#47515C" fill-opacity="0.5"/>
<path fill-rule="evenodd" clip-rule="evenodd" d="M279.403 423.719L280.543 423.067L272.315 408.955L271.175 409.606L279.403 423.719ZM163.384 224.735L164.525 224.083L156.296 209.971L155.156 210.623L163.384 224.735Z" fill="#47515C" fill-opacity="0.5"/>
<path fill-rule="evenodd" clip-rule="evenodd" d="M325.125 378.925L325.783 377.796L311.531 369.648L310.872 370.777L325.125 378.925ZM124.171 264.041L124.83 262.912L110.577 254.764L109.919 255.893L124.171 264.041Z" fill="#47515C" fill-opacity="0.5"/>
<path fill-rule="evenodd" clip-rule="evenodd" d="M97.881 347.958L98.2211 349.215L103.933 347.699L103.593 346.442L97.881 347.958ZM331.44 285.99L331.78 287.247L337.493 285.731L337.152 284.474L331.44 285.99Z" fill="#47515C" fill-opacity="0.2"/>
<path fill-rule="evenodd" clip-rule="evenodd" d="M129.642 403.105L130.572 404.026L134.753 399.885L133.824 398.965L129.642 403.105ZM300.3 234.11L301.229 235.03L305.884 230.421L304.955 229.501L300.3 234.11Z" fill="#47515C" fill-opacity="0.2"/>
<path fill-rule="evenodd" clip-rule="evenodd" d="M184.994 435.139L186.263 435.476L187.794 429.82L186.525 429.483L184.994 435.139ZM247.576 203.869L248.845 204.206L250.376 198.55L249.106 198.213L247.576 203.869Z" fill="#47515C" fill-opacity="0.2"/>
<path fill-rule="evenodd" clip-rule="evenodd" d="M249.108 435.476L250.377 435.139L248.846 429.483L247.577 429.82L249.108 435.476ZM186.526 204.206L187.796 203.87L186.265 198.213L184.996 198.55L186.526 204.206Z" fill="#47515C" fill-opacity="0.2"/>
<path fill-rule="evenodd" clip-rule="evenodd" d="M304.801 404.026L305.73 403.106L301.548 398.965L300.619 399.885L304.801 404.026ZM133.823 234.725L134.753 233.804L130.571 229.664L129.642 230.584L133.823 234.725Z" fill="#47515C" fill-opacity="0.2"/>
<path fill-rule="evenodd" clip-rule="evenodd" d="M337.152 349.215L337.492 347.958L331.78 346.443L331.44 347.7L337.152 349.215ZM103.593 287.247L103.933 285.99L98.2205 284.474L97.8804 285.731L103.593 287.247Z" fill="#47515C" fill-opacity="0.2"/>
<defs>
<filter id="filter0_f_20_316" x="-65.3896" y="47.4977" width="414.306" height="410.367" filterUnits="userSpaceOnUse" color-interpolation-filters="sRGB">
<feFlood flood-opacity="0" result="BackgroundImageFix"/>
<feBlend mode="normal" in="SourceGraphic" in2="BackgroundImageFix" result="shape"/>
<feGaussianBlur stdDeviation="50" result="effect1_foregroundBlur_20_316"/>
</filter>
<filter id="filter1_f_20_316" x="-119.913" y="0.119278" width="814.303" height="810.364" filterUnits="userSpaceOnUse" color-interpolation-filters="sRGB">
<feFlood flood-opacity="0" result="BackgroundImageFix"/>
<feBlend mode="normal" in="SourceGraphic" in2="BackgroundImageFix" result="shape"/>
<feGaussianBlur stdDeviation="150" result="effect1_foregroundBlur_20_316"/>
</filter>
<filter id="filter2_dd_20_316" x="29.9939" y="133.74" width="380.713" height="377.188" filterUnits="userSpaceOnUse" color-interpolation-filters="sRGB">
<feFlood flood-opacity="0" result="BackgroundImageFix"/>
<feColorMatrix in="SourceAlpha" type="matrix" values="0 0 0 0 0 0 0 0 0 0 0 0 0 0 0 0 0 0 127 0" result="hardAlpha"/>
<feOffset dx="4" dy="6"/>
<feGaussianBlur stdDeviation="30"/>
<feComposite in2="hardAlpha" operator="out"/>
<feColorMatrix type="matrix" values="0 0 0 0 1 0 0 0 0 0.80803 0 0 0 0 0.5475 0 0 0 0.36 0"/>
<feBlend mode="normal" in2="BackgroundImageFix" result="effect1_dropShadow_20_316"/>
<feColorMatrix in="SourceAlpha" type="matrix" values="0 0 0 0 0 0 0 0 0 0 0 0 0 0 0 0 0 0 127 0" result="hardAlpha"/>
<feOffset dx="-9" dy="-6"/>
<feGaussianBlur stdDeviation="25"/>
<feComposite in2="hardAlpha" operator="out"/>
<feColorMatrix type="matrix" values="0 0 0 0 1 0 0 0 0 1 0 0 0 0 1 0 0 0 0.38 0"/>
<feBlend mode="normal" in2="effect1_dropShadow_20_316" result="effect2_dropShadow_20_316"/>
<feBlend mode="normal" in="SourceGraphic" in2="effect2_dropShadow_20_316" result="shape"/>
</filter>
<filter id="filter3_dii_20_316" x="94.7444" y="206.671" width="266.213" height="264.584" filterUnits="userSpaceOnUse" color-interpolation-filters="sRGB">
<feFlood flood-opacity="0" result="BackgroundImageFix"/>
<feColorMatrix in="SourceAlpha" type="matrix" values="0 0 0 0 0 0 0 0 0 0 0 0 0 0 0 0 0 0 127 0" result="hardAlpha"/>
<feOffset dx="10" dy="20"/>
<feGaussianBlur stdDeviation="25"/>
<feComposite in2="hardAlpha" operator="out"/>
<feColorMatrix type="matrix" values="0 0 0 0 1 0 0 0 0 0.707295 0 0 0 0 0.310052 0 0 0 1 0"/>
<feBlend mode="normal" in2="BackgroundImageFix" result="effect1_dropShadow_20_316"/>
<feBlend mode="normal" in="SourceGraphic" in2="effect1_dropShadow_20_316" result="shape"/>
<feColorMatrix in="SourceAlpha" type="matrix" values="0 0 0 0 0 0 0 0 0 0 0 0 0 0 0 0 0 0 127 0" result="hardAlpha"/>
<feOffset dx="20" dy="20"/>
<feGaussianBlur stdDeviation="25"/>
<feComposite in2="hardAlpha" operator="arithmetic" k2="-1" k3="1"/>
<feColorMatrix type="matrix" values="0 0 0 0 0.9875 0 0 0 0 0.9335 0 0 0 0 0.828677 0 0 0 1 0"/>
<feBlend mode="normal" in2="shape" result="effect2_innerShadow_20_316"/>
<feColorMatrix in="SourceAlpha" type="matrix" values="0 0 0 0 0 0 0 0 0 0 0 0 0 0 0 0 0 0 127 0" result="hardAlpha"/>
<feOffset dx="-11" dy="-10"/>
<feGaussianBlur stdDeviation="14"/>
<feComposite in2="hardAlpha" operator="arithmetic" k2="-1" k3="1"/>
<feColorMatrix type="matrix" values="0 0 0 0 1 0 0 0 0 0.707295 0 0 0 0 0.310052 0 0 0 0.3 0"/>
<feBlend mode="normal" in2="effect2_innerShadow_20_316" result="effect3_innerShadow_20_316"/>
</filter>
<filter id="filter4_d_20_316" x="109.353" y="298.079" width="82.7108" height="82.4882" filterUnits="userSpaceOnUse" color-interpolation-filters="sRGB">
<feFlood flood-opacity="0" result="BackgroundImageFix"/>
<feColorMatrix in="SourceAlpha" type="matrix" values="0 0 0 0 0 0 0 0 0 0 0 0 0 0 0 0 0 0 127 0" result="hardAlpha"/>
<feMorphology radius="10" operator="dilate" in="SourceAlpha" result="effect1_dropShadow_20_316"/>
<feOffset dy="4"/>
<feGaussianBlur stdDeviation="10"/>
<feComposite in2="hardAlpha" operator="out"/>
<feColorMatrix type="matrix" values="0 0 0 0 0.101961 0 0 0 0 0.45098 0 0 0 0 0.909804 0 0 0 0.07 0"/>
<feBlend mode="normal" in2="BackgroundImageFix" result="effect1_dropShadow_20_316"/>
<feBlend mode="normal" in="SourceGraphic" in2="effect1_dropShadow_20_316" result="shape"/>
</filter>
<filter id="filter5_f_20_316" x="122.631" y="307.642" width="56.4822" height="55.3625" filterUnits="userSpaceOnUse" color-interpolation-filters="sRGB">
<feFlood flood-opacity="0" result="BackgroundImageFix"/>
<feBlend mode="normal" in="SourceGraphic" in2="BackgroundImageFix" result="shape"/>
<feGaussianBlur stdDeviation="10.5" result="effect1_foregroundBlur_20_316"/>
</filter>
</defs>
</svg>
