<svg width="80" height="127" viewBox="0 0 80 127" fill="none" xmlns="http://www.w3.org/2000/svg">
<g clip-path="url(#clip0_303_250)">
<path d="M2.12068 6.95121L2.12067 119.78C3.76831 117.214 5.91501 114.063 8.46951 110.736C14.6894 102.634 23.5308 93.2134 33.6601 88.8694C43.1624 84.7944 50.2723 80.3183 54.9383 75.9852C59.6642 71.5965 61.5991 67.6322 61.496 64.5634C61.3935 61.5088 59.3184 58.1138 54.4993 53.9649C49.735 49.8632 42.6824 45.3555 33.4474 40.0166C23.8492 34.4676 15.0709 24.6261 8.7614 16.3346C6.09254 12.8274 3.83807 9.56061 2.12068 6.95121Z" fill="#56969E" fill-opacity="0.61" stroke="url(#paint0_linear_303_250)" stroke-width="4"/>
<path fill-rule="evenodd" clip-rule="evenodd" d="M23.4057 63.6805L33.2085 73.4833C33.9451 74.2199 33.9451 75.4141 33.2085 76.1507C32.472 76.8873 31.2777 76.8873 30.5411 76.1507L19.8715 65.4811C19.7827 65.3922 19.7046 65.2967 19.6372 65.1962C19.5591 65.1392 19.4844 65.0754 19.4139 65.0049C18.6773 64.2683 18.6773 63.0741 19.4139 62.3375L30.0835 51.6679C30.8201 50.9313 32.0143 50.9313 32.7509 51.6679C33.4875 52.4045 33.4875 53.5987 32.7509 54.3353L23.4057 63.6805Z" fill="white"/>
</g>
<defs>
<linearGradient id="paint0_linear_303_250" x1="63.5" y1="63.4882" x2="0.120681" y2="63.4882" gradientUnits="userSpaceOnUse">
<stop stop-color="#E1EFFF" stop-opacity="0.25"/>
<stop offset="1" stop-opacity="0"/>
</linearGradient>
<clipPath id="clip0_303_250">
<rect width="127" height="79.2178" fill="white" transform="matrix(4.37114e-08 -1 -1 -4.37114e-08 79.2178 127)"/>
</clipPath>
</defs>
</svg>
