<svg width="80" height="127" viewBox="0 0 80 127" fill="none" xmlns="http://www.w3.org/2000/svg">
<g clip-path="url(#clip0_303_255)">
<path d="M77.0971 6.95121L77.0971 119.78C75.4495 117.214 73.3028 114.063 70.7483 110.736C64.5283 102.634 55.687 93.2134 45.5576 88.8694C36.0553 84.7944 28.9455 80.3183 24.2794 75.9852C19.5535 71.5965 17.6187 67.6322 17.7217 64.5634C17.8243 61.5088 19.8993 58.1138 24.7185 53.9649C29.4827 49.8632 36.5353 45.3555 45.7704 40.0166C55.3686 34.4676 64.1469 24.6261 70.4564 16.3346C73.1252 12.8274 75.3797 9.56061 77.0971 6.95121Z" fill="#56969E" fill-opacity="0.61" stroke="url(#paint0_linear_303_255)" stroke-width="4"/>
<path fill-rule="evenodd" clip-rule="evenodd" d="M55.812 63.6805L46.0092 73.4833C45.2726 74.2199 45.2726 75.4141 46.0092 76.1507C46.7458 76.8873 47.94 76.8873 48.6766 76.1507L59.3462 65.4811C59.4351 65.3922 59.5132 65.2967 59.5806 65.1962C59.6587 65.1392 59.7334 65.0754 59.8039 65.0049C60.5405 64.2683 60.5405 63.0741 59.8039 62.3375L49.1343 51.6679C48.3977 50.9313 47.2035 50.9313 46.4669 51.6679C45.7303 52.4045 45.7303 53.5987 46.4669 54.3353L55.812 63.6805Z" fill="white"/>
</g>
<defs>
<linearGradient id="paint0_linear_303_255" x1="15.7178" y1="63.4882" x2="79.0971" y2="63.4882" gradientUnits="userSpaceOnUse">
<stop stop-color="#E1EFFF" stop-opacity="0.25"/>
<stop offset="1" stop-opacity="0"/>
</linearGradient>
<clipPath id="clip0_303_255">
<rect width="127" height="79.2178" fill="white" transform="translate(0 127) rotate(-90)"/>
</clipPath>
</defs>
</svg>
