<svg width="430" height="430" viewBox="0 0 430 430" fill="none" xmlns="http://www.w3.org/2000/svg">
<g clip-path="url(#clip0_348_342)">
<rect width="430" height="430" fill="white"/>
<g filter="url(#filter0_f_348_342)">
<ellipse cx="283.789" cy="155.309" rx="144.837" ry="142.92" transform="rotate(65.3652 283.789 155.309)" fill="white" fill-opacity="0.09"/>
</g>
<g filter="url(#filter1_f_348_342)">
<ellipse cx="131.824" cy="273.414" rx="115.63" ry="114.099" transform="rotate(65.3652 131.824 273.414)" fill="black" fill-opacity="0.03"/>
</g>
<g filter="url(#filter2_dd_348_342)">
<circle cx="214.866" cy="215.92" r="138.769" transform="rotate(90 214.866 215.92)" fill="#FFD7A1"/>
</g>
<g filter="url(#filter3_dii_348_342)">
<circle cx="213.094" cy="215.92" r="89.4995" transform="rotate(90 213.094 215.92)" fill="#FFF3E4" fill-opacity="0.62" shape-rendering="crispEdges"/>
</g>
<path d="M313.551 219.973C313.551 219.131 313.764 218.409 314.19 217.805C314.62 217.205 315.239 216.743 316.047 216.419C316.858 216.099 317.835 215.939 318.977 215.939C320.119 215.942 321.09 216.104 321.891 216.425C322.696 216.748 323.31 217.21 323.732 217.81C324.155 218.414 324.366 219.135 324.366 219.973C324.366 220.812 324.155 221.533 323.732 222.137C323.31 222.74 322.696 223.202 321.891 223.522C321.087 223.846 320.115 224.008 318.977 224.008C317.831 224.008 316.853 223.846 316.041 223.522C315.233 223.202 314.616 222.74 314.19 222.137C313.764 221.537 313.551 220.815 313.551 219.973ZM315.152 219.973C315.152 220.628 315.474 221.144 316.118 221.523C316.766 221.905 317.719 222.096 318.977 222.096C319.808 222.096 320.507 222.009 321.073 221.835C321.639 221.661 322.065 221.415 322.352 221.098C322.641 220.781 322.786 220.406 322.786 219.973C322.786 219.322 322.462 218.808 321.815 218.429C321.17 218.051 320.224 217.86 318.977 217.856C318.141 217.853 317.439 217.937 316.87 218.107C316.3 218.281 315.871 218.526 315.581 218.843C315.295 219.16 315.152 219.537 315.152 219.973ZM288.278 215.399C288.278 214.175 287.27 213.152 286.032 213.152C284.779 213.152 283.771 214.175 283.771 215.399C283.771 216.651 284.779 217.659 286.032 217.659C287.27 217.659 288.278 216.651 288.278 215.399ZM284.635 215.399C284.635 214.65 285.254 214.016 286.032 214.016C286.795 214.016 287.414 214.65 287.414 215.399C287.414 216.176 286.795 216.795 286.032 216.795C285.254 216.795 284.635 216.176 284.635 215.399Z" fill="#333333"/>
<path opacity="0.5" d="M299.189 160.843C298.896 160.336 298.722 159.833 298.667 159.334C298.612 158.837 298.674 158.383 298.85 157.973C299.031 157.564 299.321 157.232 299.722 156.978L300.391 158.136C300.176 158.28 300.025 158.468 299.938 158.698C299.855 158.93 299.833 159.182 299.873 159.454C299.912 159.727 300.01 159.998 300.166 160.269C300.338 160.567 300.542 160.8 300.777 160.969C301.014 161.141 301.262 161.239 301.522 161.262C301.784 161.285 302.037 161.226 302.281 161.085C302.534 160.939 302.719 160.745 302.836 160.504C302.956 160.264 303 159.988 302.967 159.675C302.936 159.365 302.82 159.036 302.618 158.686L302.249 158.048L303.179 157.511L303.548 158.149C303.71 158.43 303.902 158.647 304.125 158.8C304.35 158.956 304.587 159.042 304.836 159.059C305.087 159.074 305.335 159.012 305.579 158.871C305.812 158.736 305.985 158.566 306.096 158.361C306.211 158.157 306.262 157.93 306.25 157.682C306.239 157.435 306.159 157.183 306.01 156.925C305.868 156.679 305.689 156.475 305.475 156.313C305.264 156.153 305.037 156.055 304.793 156.018C304.551 155.981 304.312 156.024 304.075 156.147L303.438 155.044C303.853 154.82 304.282 154.734 304.724 154.783C305.168 154.836 305.586 155.001 305.98 155.279C306.373 155.557 306.703 155.927 306.97 156.39C307.25 156.874 307.397 157.347 307.411 157.809C307.428 158.271 307.336 158.688 307.134 159.06C306.934 159.435 306.648 159.729 306.275 159.941C305.853 160.187 305.426 160.277 304.993 160.208C304.561 160.143 304.181 159.942 303.853 159.607L303.794 159.641C304.007 160.187 304.033 160.691 303.869 161.152C303.708 161.616 303.387 161.985 302.909 162.258C302.494 162.5 302.055 162.6 301.59 162.557C301.127 162.516 300.685 162.349 300.264 162.058C299.845 161.765 299.487 161.36 299.189 160.843ZM303.236 167.853C302.943 167.346 302.769 166.843 302.714 166.344C302.66 165.847 302.721 165.393 302.897 164.983C303.078 164.574 303.368 164.242 303.769 163.987L304.438 165.146C304.223 165.29 304.072 165.478 303.985 165.708C303.902 165.94 303.881 166.192 303.92 166.464C303.959 166.737 304.057 167.008 304.213 167.279C304.385 167.577 304.589 167.81 304.824 167.979C305.061 168.151 305.309 168.249 305.569 168.272C305.831 168.295 306.084 168.236 306.328 168.095C306.581 167.949 306.766 167.755 306.883 167.514C307.003 167.274 307.047 166.997 307.015 166.685C306.983 166.375 306.867 166.045 306.665 165.696L306.296 165.058L307.226 164.521L307.595 165.159C307.757 165.44 307.949 165.657 308.172 165.81C308.397 165.966 308.634 166.052 308.883 166.069C309.135 166.084 309.382 166.022 309.626 165.881C309.859 165.746 310.032 165.576 310.143 165.371C310.258 165.167 310.309 164.94 310.297 164.692C310.286 164.445 310.206 164.193 310.057 163.935C309.915 163.689 309.736 163.485 309.522 163.323C309.311 163.163 309.084 163.065 308.84 163.028C308.598 162.991 308.359 163.034 308.122 163.157L307.485 162.054C307.9 161.83 308.329 161.743 308.771 161.793C309.215 161.846 309.633 162.011 310.027 162.289C310.42 162.567 310.75 162.937 311.018 163.4C311.297 163.884 311.444 164.357 311.458 164.818C311.475 165.281 311.383 165.698 311.182 166.07C310.981 166.445 310.695 166.738 310.322 166.95C309.9 167.197 309.473 167.287 309.04 167.218C308.608 167.153 308.228 166.952 307.9 166.617L307.841 166.651C308.055 167.197 308.08 167.7 307.917 168.162C307.755 168.626 307.434 168.995 306.956 169.268C306.541 169.51 306.102 169.61 305.637 169.567C305.174 169.526 304.732 169.359 304.311 169.068C303.892 168.775 303.534 168.37 303.236 167.853ZM307.261 174.876C306.927 174.291 306.793 173.704 306.859 173.115C306.926 172.525 307.187 171.953 307.644 171.397C308.101 170.842 308.74 170.327 309.561 169.852C310.381 169.379 311.144 169.085 311.851 168.968C312.559 168.854 313.186 168.916 313.729 169.153C314.274 169.393 314.714 169.802 315.048 170.38C315.381 170.958 315.514 171.543 315.445 172.134C315.379 172.723 315.118 173.295 314.664 173.849C314.214 174.404 313.579 174.919 312.76 175.392C311.935 175.867 311.169 176.164 310.459 176.282C309.752 176.398 309.125 176.338 308.579 176.103C308.036 175.865 307.596 175.456 307.261 174.876ZM308.246 174.307C308.542 174.819 309.022 175.074 309.688 175.074C310.355 175.076 311.161 174.804 312.106 174.259C312.733 173.896 313.225 173.524 313.581 173.141C313.941 172.759 314.162 172.381 314.244 172.005C314.33 171.631 314.275 171.275 314.081 170.938C313.787 170.429 313.305 170.174 312.635 170.174C311.966 170.173 311.159 170.444 310.216 170.985C309.586 171.349 309.091 171.721 308.731 172.103C308.374 172.486 308.154 172.864 308.071 173.237C307.99 173.608 308.049 173.965 308.246 174.307ZM283.256 175.129C282.746 174.246 281.593 173.928 280.699 174.444C279.795 174.966 279.493 176.124 280.003 177.007C280.525 177.911 281.673 178.218 282.577 177.696C283.471 177.18 283.778 176.033 283.256 175.129ZM280.627 176.647C280.315 176.106 280.498 175.391 281.059 175.067C281.61 174.749 282.321 174.948 282.633 175.489C282.957 176.05 282.768 176.755 282.217 177.073C281.656 177.397 280.951 177.208 280.627 176.647Z" fill="#333333"/>
<path opacity="0.5" d="M301.631 268.471C301.923 267.964 302.272 267.562 302.677 267.264C303.08 266.969 303.503 266.795 303.947 266.743C304.392 266.695 304.824 266.781 305.245 267.001L304.576 268.159C304.344 268.045 304.106 268.008 303.863 268.048C303.621 268.092 303.392 268.199 303.175 268.369C302.959 268.54 302.773 268.76 302.616 269.031C302.445 269.328 302.344 269.621 302.315 269.91C302.285 270.201 302.325 270.465 302.434 270.702C302.546 270.94 302.723 271.13 302.967 271.27C303.22 271.416 303.481 271.48 303.748 271.46C304.016 271.444 304.277 271.344 304.531 271.16C304.784 270.978 305.011 270.712 305.213 270.363L305.582 269.724L306.512 270.261L306.143 270.899C305.981 271.18 305.89 271.455 305.868 271.725C305.846 271.997 305.889 272.245 305.999 272.47C306.112 272.695 306.29 272.879 306.533 273.019C306.767 273.154 307.001 273.218 307.234 273.212C307.468 273.21 307.69 273.141 307.899 273.006C308.107 272.873 308.285 272.678 308.435 272.419C308.577 272.173 308.664 271.917 308.696 271.65C308.73 271.388 308.702 271.142 308.611 270.912C308.523 270.684 308.366 270.498 308.14 270.355L308.777 269.252C309.179 269.5 309.468 269.828 309.646 270.235C309.823 270.646 309.889 271.091 309.845 271.57C309.801 272.05 309.645 272.521 309.378 272.984C309.098 273.468 308.762 273.832 308.37 274.074C307.978 274.321 307.571 274.45 307.147 274.461C306.723 274.475 306.325 274.374 305.955 274.157C305.531 273.915 305.24 273.589 305.082 273.18C304.923 272.774 304.907 272.344 305.033 271.892L304.974 271.858C304.608 272.316 304.185 272.59 303.703 272.679C303.22 272.771 302.741 272.678 302.265 272.4C301.848 272.163 301.542 271.832 301.347 271.408C301.151 270.986 301.074 270.52 301.116 270.01C301.161 269.501 301.332 268.988 301.631 268.471ZM297.561 275.468C297.9 274.887 298.342 274.477 298.885 274.24C299.429 274.003 300.056 273.943 300.765 274.061C301.475 274.179 302.24 274.475 303.062 274.949C303.881 275.422 304.518 275.936 304.972 276.49C305.425 277.046 305.685 277.62 305.751 278.209C305.816 278.801 305.682 279.386 305.348 279.964C305.014 280.542 304.574 280.949 304.028 281.185C303.484 281.422 302.859 281.483 302.152 281.366C301.446 281.254 300.683 280.961 299.864 280.488C299.04 280.013 298.399 279.497 297.943 278.941C297.488 278.387 297.227 277.814 297.158 277.224C297.092 276.634 297.226 276.049 297.561 275.468ZM298.547 276.037C298.251 276.549 298.27 277.093 298.603 277.669C298.935 278.248 299.573 278.81 300.518 279.355C301.145 279.718 301.714 279.957 302.224 280.074C302.734 280.195 303.173 280.198 303.539 280.081C303.906 279.968 304.187 279.743 304.381 279.406C304.675 278.897 304.655 278.352 304.321 277.772C303.986 277.192 303.349 276.628 302.408 276.082C301.778 275.718 301.208 275.476 300.697 275.355C300.187 275.238 299.75 275.236 299.386 275.351C299.024 275.466 298.744 275.695 298.547 276.037ZM283.316 258.311C283.826 257.428 283.525 256.27 282.631 255.754C281.727 255.232 280.573 255.55 280.063 256.433C279.541 257.337 279.849 258.485 280.753 259.007C281.647 259.523 282.794 259.215 283.316 258.311ZM280.687 256.793C280.999 256.253 281.71 256.054 282.271 256.378C282.822 256.696 283.005 257.411 282.693 257.951C282.369 258.512 281.664 258.701 281.113 258.383C280.552 258.059 280.363 257.354 280.687 256.793Z" fill="#333333"/>
<path opacity="0.5" d="M265.004 303.32C265.343 303.13 265.711 303 266.107 302.929C266.499 302.86 266.908 302.886 267.333 303.008C267.758 303.13 268.185 303.378 268.613 303.75C269.039 304.125 269.453 304.66 269.855 305.356C270.235 306.015 270.508 306.638 270.673 307.226C270.836 307.814 270.895 308.356 270.849 308.851C270.805 309.349 270.661 309.792 270.415 310.179C270.17 310.567 269.829 310.887 269.391 311.14C268.94 311.4 268.489 311.542 268.038 311.567C267.586 311.591 267.162 311.51 266.765 311.322C266.366 311.136 266.021 310.861 265.732 310.497L266.858 309.847C267.116 310.118 267.416 310.287 267.757 310.356C268.098 310.425 268.451 310.354 268.815 310.144C269.369 309.824 269.661 309.334 269.693 308.672C269.722 308.013 269.49 307.253 268.997 306.393L268.941 306.425C268.935 306.714 268.88 306.988 268.777 307.248C268.673 307.511 268.527 307.751 268.337 307.969C268.147 308.19 267.92 308.377 267.657 308.529C267.219 308.782 266.761 308.904 266.283 308.894C265.804 308.889 265.351 308.76 264.924 308.508C264.496 308.256 264.143 307.889 263.865 307.407C263.586 306.925 263.444 306.425 263.437 305.907C263.427 305.391 263.554 304.905 263.815 304.449C264.078 303.995 264.474 303.619 265.004 303.32ZM265.561 304.277C265.271 304.445 265.053 304.666 264.906 304.941C264.76 305.216 264.69 305.512 264.696 305.83C264.702 306.148 264.791 306.455 264.963 306.753C265.131 307.043 265.349 307.27 265.617 307.434C265.883 307.598 266.169 307.686 266.477 307.695C266.781 307.706 267.078 307.628 267.366 307.462C267.585 307.336 267.763 307.177 267.902 306.985C268.038 306.795 268.134 306.586 268.189 306.357C268.244 306.128 268.257 305.895 268.227 305.656C268.196 305.421 268.12 305.198 267.998 304.986C267.835 304.703 267.618 304.479 267.348 304.313C267.076 304.149 266.783 304.059 266.469 304.043C266.154 304.032 265.852 304.11 265.561 304.277ZM258.08 307.288C258.664 306.954 259.251 306.82 259.841 306.886C260.43 306.953 261.003 307.214 261.558 307.671C262.114 308.128 262.629 308.767 263.103 309.589C263.576 310.408 263.871 311.171 263.987 311.878C264.101 312.587 264.039 313.213 263.802 313.756C263.562 314.301 263.153 314.741 262.575 315.075C261.997 315.409 261.413 315.541 260.822 315.472C260.232 315.406 259.66 315.145 259.106 314.691C258.551 314.241 258.037 313.606 257.564 312.787C257.088 311.963 256.791 311.196 256.674 310.486C256.557 309.779 256.617 309.152 256.853 308.606C257.09 308.063 257.499 307.623 258.08 307.288ZM258.648 308.273C258.137 308.569 257.881 309.049 257.882 309.715C257.88 310.382 258.151 311.188 258.697 312.133C259.059 312.76 259.432 313.252 259.814 313.608C260.196 313.968 260.575 314.189 260.95 314.271C261.324 314.357 261.68 314.302 262.017 314.108C262.526 313.814 262.781 313.332 262.782 312.663C262.782 311.993 262.512 311.186 261.97 310.243C261.607 309.613 261.234 309.118 260.852 308.758C260.469 308.401 260.091 308.182 259.719 308.098C259.347 308.017 258.99 308.076 258.648 308.273ZM254.276 285.333C255.159 284.823 255.477 283.67 254.961 282.776C254.439 281.872 253.281 281.57 252.398 282.08C251.494 282.602 251.186 283.75 251.708 284.654C252.224 285.548 253.372 285.855 254.276 285.333ZM252.758 282.704C253.298 282.392 254.014 282.575 254.338 283.136C254.656 283.687 254.456 284.398 253.916 284.71C253.355 285.034 252.65 284.845 252.332 284.294C252.008 283.733 252.197 283.028 252.758 282.704Z" fill="#333333"/>
<path opacity="0.5" d="M261.554 125.582C261.047 125.289 260.645 124.941 260.347 124.536C260.052 124.132 259.878 123.709 259.826 123.265C259.778 122.821 259.863 122.388 260.083 121.967L261.242 122.636C261.128 122.869 261.091 123.106 261.131 123.349C261.175 123.591 261.282 123.82 261.452 124.037C261.623 124.253 261.843 124.44 262.114 124.596C262.411 124.768 262.704 124.868 262.993 124.897C263.284 124.927 263.548 124.888 263.785 124.778C264.023 124.667 264.212 124.489 264.353 124.245C264.499 123.992 264.563 123.732 264.543 123.464C264.527 123.196 264.427 122.935 264.243 122.681C264.061 122.428 263.795 122.201 263.446 121.999L262.807 121.631L263.344 120.701L263.982 121.069C264.263 121.231 264.538 121.323 264.808 121.344C265.08 121.367 265.328 121.323 265.553 121.213C265.778 121.101 265.962 120.923 266.102 120.679C266.237 120.445 266.301 120.212 266.295 119.979C266.293 119.744 266.224 119.522 266.089 119.313C265.956 119.105 265.761 118.927 265.502 118.778C265.256 118.636 265 118.548 264.733 118.516C264.471 118.482 264.224 118.511 263.995 118.601C263.767 118.69 263.581 118.846 263.438 119.072L262.334 118.435C262.583 118.034 262.911 117.744 263.318 117.566C263.729 117.39 264.174 117.323 264.653 117.367C265.133 117.412 265.604 117.567 266.067 117.834C266.551 118.114 266.915 118.45 267.157 118.843C267.404 119.234 267.533 119.642 267.544 120.065C267.558 120.49 267.457 120.887 267.24 121.257C266.998 121.682 266.672 121.973 266.263 122.13C265.857 122.289 265.427 122.305 264.975 122.179L264.941 122.238C265.399 122.604 265.673 123.028 265.762 123.509C265.854 123.992 265.761 124.471 265.483 124.947C265.246 125.364 264.915 125.67 264.491 125.865C264.069 126.061 263.603 126.138 263.093 126.096C262.584 126.052 262.071 125.88 261.554 125.582ZM268.551 129.651C267.97 129.312 267.56 128.871 267.323 128.327C267.086 127.783 267.026 127.157 267.144 126.447C267.261 125.738 267.558 124.972 268.032 124.15C268.505 123.331 269.019 122.694 269.573 122.24C270.129 121.787 270.702 121.528 271.292 121.461C271.884 121.396 272.469 121.53 273.047 121.864C273.625 122.198 274.032 122.638 274.268 123.184C274.505 123.728 274.566 124.353 274.449 125.06C274.337 125.766 274.044 126.529 273.571 127.348C273.095 128.173 272.58 128.813 272.024 129.27C271.47 129.724 270.897 129.985 270.307 130.054C269.717 130.121 269.132 129.986 268.551 129.651ZM269.12 128.666C269.632 128.961 270.176 128.942 270.752 128.609C271.331 128.277 271.893 127.639 272.438 126.694C272.801 126.067 273.04 125.498 273.157 124.989C273.278 124.478 273.281 124.039 273.164 123.674C273.051 123.307 272.826 123.026 272.489 122.831C271.98 122.537 271.435 122.557 270.855 122.892C270.275 123.226 269.711 123.863 269.165 124.804C268.801 125.434 268.559 126.004 268.438 126.515C268.321 127.025 268.319 127.462 268.434 127.827C268.549 128.189 268.778 128.468 269.12 128.666ZM275.571 133.704C274.99 133.365 274.58 132.924 274.343 132.38C274.106 131.836 274.046 131.21 274.164 130.5C274.282 129.791 274.578 129.025 275.052 128.203C275.525 127.384 276.039 126.747 276.593 126.293C277.15 125.84 277.723 125.581 278.312 125.514C278.904 125.449 279.489 125.584 280.067 125.917C280.645 126.251 281.052 126.691 281.288 127.237C281.525 127.781 281.586 128.406 281.47 129.113C281.357 129.819 281.064 130.582 280.591 131.401C280.116 132.226 279.6 132.866 279.044 133.323C278.49 133.777 277.917 134.038 277.327 134.107C276.737 134.174 276.152 134.039 275.571 133.704ZM276.14 132.719C276.652 133.014 277.196 132.995 277.772 132.662C278.351 132.33 278.913 131.692 279.458 130.747C279.821 130.12 280.06 129.551 280.177 129.042C280.299 128.531 280.301 128.093 280.184 127.727C280.071 127.36 279.846 127.079 279.509 126.884C279 126.59 278.455 126.61 277.875 126.945C277.295 127.279 276.732 127.916 276.185 128.857C275.821 129.487 275.579 130.058 275.458 130.568C275.341 131.078 275.339 131.515 275.454 131.88C275.57 132.242 275.798 132.521 276.14 132.719ZM254.904 145.923C254.021 145.413 252.863 145.714 252.347 146.608C251.825 147.512 252.143 148.665 253.026 149.175C253.93 149.697 255.078 149.39 255.6 148.486C256.116 147.592 255.808 146.445 254.904 145.923ZM253.386 148.552C252.846 148.24 252.647 147.529 252.971 146.968C253.289 146.417 254.004 146.234 254.544 146.546C255.105 146.87 255.294 147.575 254.976 148.126C254.652 148.687 253.947 148.876 253.386 148.552Z" fill="#333333"/>
<path opacity="0.5" d="M158.882 130.991L158.405 130.164L159.433 126.038C159.539 125.592 159.619 125.21 159.671 124.891C159.724 124.569 159.738 124.283 159.713 124.035C159.688 123.787 159.612 123.553 159.484 123.331C159.339 123.08 159.155 122.898 158.932 122.784C158.707 122.668 158.464 122.619 158.203 122.639C157.941 122.656 157.682 122.738 157.426 122.886C157.155 123.042 156.951 123.234 156.813 123.461C156.675 123.688 156.611 123.934 156.619 124.198C156.627 124.462 156.709 124.73 156.866 125L155.777 125.629C155.511 125.169 155.385 124.706 155.397 124.239C155.41 123.772 155.546 123.338 155.806 122.935C156.064 122.53 156.428 122.192 156.898 121.921C157.373 121.647 157.846 121.5 158.317 121.481C158.789 121.457 159.221 121.549 159.613 121.756C160.003 121.961 160.315 122.266 160.55 122.672C160.712 122.952 160.817 123.257 160.866 123.586C160.918 123.914 160.909 124.317 160.842 124.796C160.772 125.273 160.642 125.877 160.452 126.61L159.858 129.05L159.89 129.105L163.292 127.141L163.857 128.119L158.882 130.991ZM164.394 125.84L163.861 124.918L164.149 117.873L164.876 117.453L165.66 118.811L165.199 119.077L164.997 124.124L165.032 124.183L169.508 121.598L170.066 122.565L164.394 125.84ZM168.83 125.247L167.816 123.491L167.58 123.066L164.473 117.685L165.555 117.061L169.918 124.619L168.83 125.247ZM175.22 121.725C174.636 122.059 174.049 122.193 173.459 122.127C172.87 122.06 172.297 121.799 171.742 121.342C171.186 120.886 170.671 120.246 170.197 119.425C169.723 118.605 169.429 117.842 169.313 117.135C169.199 116.427 169.26 115.801 169.498 115.257C169.737 114.712 170.146 114.272 170.724 113.938C171.303 113.605 171.887 113.472 172.478 113.541C173.067 113.608 173.639 113.868 174.194 114.322C174.749 114.772 175.263 115.407 175.736 116.226C176.212 117.051 176.508 117.818 176.626 118.527C176.742 119.234 176.683 119.861 176.447 120.407C176.21 120.951 175.801 121.39 175.22 121.725ZM174.651 120.74C175.163 120.444 175.419 119.964 175.418 119.298C175.42 118.631 175.148 117.825 174.603 116.881C174.241 116.253 173.868 115.761 173.485 115.405C173.103 115.045 172.725 114.824 172.35 114.742C171.975 114.656 171.62 114.711 171.283 114.905C170.773 115.199 170.518 115.681 170.518 116.351C170.517 117.02 170.788 117.827 171.329 118.77C171.693 119.4 172.066 119.895 172.448 120.256C172.831 120.612 173.208 120.832 173.581 120.915C173.953 120.996 174.309 120.937 174.651 120.74ZM175.666 145.619C174.783 146.129 174.465 147.282 174.981 148.176C175.503 149.08 176.661 149.381 177.544 148.871C178.448 148.349 178.756 147.202 178.234 146.298C177.718 145.404 176.57 145.097 175.666 145.619ZM177.184 148.248C176.644 148.56 175.928 148.377 175.604 147.816C175.286 147.265 175.486 146.554 176.026 146.242C176.587 145.918 177.292 146.107 177.61 146.658C177.934 147.219 177.745 147.924 177.184 148.248Z" fill="#333333"/>
<path opacity="0.5" d="M163.095 312.461L167.459 304.903L168.603 305.564L164.899 311.978L164.944 312.003L167.434 311.866L166.803 312.959L164.206 313.103L163.095 312.461ZM165.102 303.543L164.625 304.369L160.538 305.543C160.098 305.673 159.728 305.795 159.426 305.909C159.12 306.025 158.865 306.155 158.663 306.301C158.461 306.446 158.296 306.63 158.168 306.851C158.023 307.102 157.957 307.353 157.97 307.603C157.982 307.856 158.061 308.09 158.209 308.307C158.355 308.525 158.556 308.709 158.811 308.856C159.082 309.013 159.35 309.094 159.616 309.099C159.882 309.105 160.127 309.038 160.351 308.899C160.576 308.76 160.767 308.555 160.923 308.284L162.012 308.913C161.746 309.373 161.408 309.714 160.998 309.936C160.587 310.159 160.143 310.258 159.664 310.234C159.184 310.213 158.709 310.067 158.24 309.796C157.765 309.522 157.401 309.185 157.149 308.787C156.893 308.39 156.756 307.97 156.74 307.527C156.721 307.087 156.83 306.664 157.064 306.258C157.226 305.978 157.437 305.734 157.698 305.527C157.956 305.318 158.309 305.124 158.758 304.943C159.205 304.765 159.794 304.575 160.524 304.373L162.934 303.668L162.965 303.613L159.563 301.649L160.128 300.671L165.102 303.543ZM155.858 298.038C156.44 298.378 156.849 298.819 157.087 299.363C157.324 299.906 157.383 300.533 157.266 301.242C157.148 301.952 156.852 302.718 156.378 303.539C155.905 304.359 155.391 304.995 154.837 305.45C154.28 305.902 153.707 306.162 153.118 306.228C152.526 306.293 151.941 306.159 151.362 305.825C150.784 305.491 150.377 305.051 150.142 304.505C149.904 303.962 149.844 303.336 149.96 302.629C150.073 301.923 150.365 301.16 150.838 300.341C151.314 299.517 151.83 298.877 152.385 298.42C152.94 297.966 153.512 297.704 154.103 297.635C154.693 297.569 155.278 297.703 155.858 298.038ZM155.289 299.024C154.778 298.728 154.234 298.747 153.657 299.08C153.079 299.412 152.517 300.051 151.971 300.995C151.609 301.623 151.369 302.191 151.252 302.701C151.131 303.212 151.129 303.65 151.246 304.016C151.359 304.383 151.584 304.664 151.921 304.858C152.43 305.152 152.975 305.132 153.555 304.798C154.135 304.464 154.698 303.826 155.245 302.885C155.608 302.255 155.851 301.685 155.972 301.174C156.089 300.665 156.09 300.228 155.976 299.863C155.86 299.501 155.631 299.221 155.289 299.024ZM175.465 285.208C176.348 285.718 177.506 285.416 178.022 284.522C178.544 283.618 178.226 282.465 177.343 281.955C176.439 281.433 175.291 281.74 174.769 282.644C174.253 283.538 174.561 284.686 175.465 285.208ZM176.983 282.578C177.523 282.89 177.723 283.601 177.399 284.162C177.081 284.713 176.365 284.896 175.825 284.584C175.264 284.26 175.075 283.555 175.393 283.004C175.717 282.443 176.422 282.254 176.983 282.578Z" fill="#333333"/>
<path opacity="0.5" d="M123.444 171.04L122.662 170.493L121.849 166.319C121.758 165.87 121.668 165.49 121.581 165.179C121.493 164.864 121.385 164.599 121.258 164.385C121.13 164.171 120.962 163.991 120.752 163.844C120.515 163.678 120.271 163.59 120.02 163.581C119.768 163.571 119.527 163.63 119.299 163.758C119.068 163.884 118.868 164.068 118.699 164.31C118.519 164.566 118.415 164.826 118.386 165.09C118.357 165.355 118.403 165.605 118.522 165.841C118.641 166.077 118.828 166.284 119.084 166.464L118.363 167.493C117.928 167.189 117.618 166.822 117.432 166.394C117.246 165.966 117.186 165.514 117.251 165.04C117.314 164.563 117.501 164.103 117.813 163.659C118.127 163.21 118.494 162.877 118.912 162.66C119.33 162.439 119.761 162.34 120.203 162.362C120.643 162.382 121.055 162.527 121.439 162.796C121.705 162.982 121.929 163.213 122.113 163.491C122.298 163.766 122.461 164.135 122.602 164.598C122.74 165.059 122.878 165.662 123.015 166.407L123.508 168.869L123.56 168.905L125.813 165.687L126.739 166.335L123.444 171.04ZM122.622 156.999L129.771 162.005L129.013 163.087L122.946 158.839L122.917 158.881L122.836 161.373L121.803 160.65L121.886 158.05L122.622 156.999ZM133.193 157.37C132.804 157.92 132.329 158.289 131.766 158.478C131.204 158.667 130.575 158.672 129.878 158.493C129.181 158.314 128.445 157.952 127.667 157.408C126.892 156.865 126.303 156.298 125.899 155.707C125.496 155.113 125.287 154.519 125.273 153.926C125.259 153.331 125.444 152.76 125.827 152.213C126.21 151.666 126.684 151.299 127.248 151.112C127.811 150.923 128.439 150.917 129.133 151.094C129.827 151.268 130.561 151.626 131.336 152.169C132.116 152.714 132.709 153.284 133.115 153.877C133.519 154.469 133.73 155.062 133.747 155.657C133.762 156.25 133.577 156.821 133.193 157.37ZM132.261 156.717C132.599 156.233 132.628 155.69 132.346 155.087C132.066 154.481 131.479 153.866 130.586 153.24C129.992 152.825 129.447 152.536 128.949 152.375C128.451 152.21 128.014 152.17 127.64 152.254C127.264 152.335 126.965 152.534 126.742 152.853C126.404 153.335 126.377 153.879 126.659 154.486C126.942 155.093 127.528 155.71 128.418 156.336C129.013 156.754 129.56 157.045 130.059 157.21C130.556 157.371 130.992 157.41 131.365 157.328C131.735 157.245 132.034 157.041 132.261 156.717ZM144.266 178.02C143.681 178.856 143.88 180.036 144.725 180.628C145.581 181.226 146.757 181.01 147.342 180.175C147.941 179.32 147.735 178.15 146.88 177.551C146.034 176.959 144.864 177.165 144.266 178.02ZM146.753 179.762C146.395 180.273 145.669 180.409 145.138 180.038C144.617 179.673 144.498 178.945 144.855 178.433C145.227 177.903 145.946 177.776 146.467 178.141C146.998 178.512 147.124 179.231 146.753 179.762Z" fill="#333333"/>
<path opacity="0.5" d="M121.076 272.067L128.225 267.061L128.983 268.143L122.916 272.391L122.945 272.433L125.26 273.362L124.227 274.085L121.812 273.118L121.076 272.067ZM125.11 262.404C125.416 262.842 125.608 263.294 125.685 263.76C125.758 264.226 125.719 264.666 125.568 265.08C125.418 265.494 125.158 265.841 124.788 266.12L124.055 265.073C124.344 264.832 124.501 264.519 124.527 264.134C124.552 263.749 124.444 263.384 124.202 263.04C124.01 262.765 123.777 262.566 123.503 262.442C123.225 262.318 122.932 262.273 122.624 262.309C122.314 262.342 122.016 262.459 121.73 262.659C121.439 262.863 121.224 263.107 121.084 263.393C120.943 263.678 120.886 263.977 120.91 264.289C120.933 264.599 121.043 264.897 121.239 265.182C121.391 265.399 121.58 265.59 121.808 265.757C122.036 265.923 122.257 266.032 122.473 266.082L123.018 267.173L119.134 269.294L116.382 265.363L117.307 264.715L119.431 267.749L121.59 266.575L121.561 266.533C121.328 266.488 121.086 266.382 120.834 266.215C120.58 266.046 120.36 265.829 120.174 265.564C119.87 265.129 119.702 264.669 119.671 264.184C119.639 263.697 119.733 263.23 119.955 262.783C120.172 262.336 120.513 261.952 120.978 261.63C121.44 261.303 121.926 261.119 122.437 261.076C122.947 261.032 123.437 261.122 123.907 261.348C124.373 261.573 124.774 261.925 125.11 262.404ZM120.566 255.87C120.95 256.423 121.134 256.996 121.119 257.589C121.105 258.182 120.894 258.775 120.487 259.369C120.081 259.962 119.489 260.531 118.712 261.075C117.937 261.618 117.202 261.978 116.508 262.155C115.812 262.33 115.183 262.323 114.621 262.134C114.057 261.943 113.583 261.574 113.2 261.027C112.817 260.48 112.635 259.91 112.652 259.315C112.667 258.722 112.876 258.13 113.28 257.538C113.68 256.946 114.268 256.378 115.043 255.835C115.823 255.29 116.561 254.927 117.257 254.748C117.951 254.571 118.581 254.576 119.145 254.763C119.708 254.952 120.181 255.321 120.566 255.87ZM119.634 256.523C119.295 256.039 118.794 255.826 118.131 255.884C117.466 255.94 116.687 256.281 115.793 256.907C115.2 257.323 114.742 257.737 114.421 258.149C114.095 258.561 113.908 258.957 113.859 259.338C113.806 259.719 113.892 260.068 114.115 260.387C114.452 260.869 114.954 261.081 115.621 261.023C116.288 260.965 117.068 260.625 117.961 260.003C118.557 259.586 119.018 259.172 119.343 258.76C119.665 258.348 119.851 257.952 119.901 257.573C119.949 257.196 119.86 256.846 119.634 256.523ZM143.781 252.561C144.367 253.397 145.543 253.613 146.389 253.021C147.244 252.422 147.443 251.242 146.858 250.407C146.259 249.551 145.09 249.345 144.234 249.944C143.389 250.536 143.183 251.706 143.781 252.561ZM146.268 250.82C146.626 251.331 146.506 252.059 145.976 252.431C145.455 252.796 144.729 252.659 144.371 252.148C144 251.617 144.126 250.899 144.647 250.534C145.178 250.162 145.897 250.289 146.268 250.82Z" fill="#333333"/>
<path d="M372.192 220.656H354.738V218.236L367.539 209.364V209.202H354.738V206.568H372.192V209.006L359.374 217.886V218.048H372.192V220.656Z" fill="#F70000"/>
<path d="M211.802 378.051L211.778 360.597L222.721 360.581L222.724 362.849L214.414 362.86L214.422 368.178L222.16 368.168L222.164 370.426L214.425 370.437L214.432 375.781L222.844 375.769L222.848 378.036L211.802 378.051Z" fill="#47515C"/>
<path d="M63.4926 217.154C64.2994 217.063 64.9244 216.688 65.3676 216.029C65.8165 215.37 66.0409 214.541 66.0409 213.541C66.0409 212.825 65.9273 212.205 65.7 211.683C65.4784 211.16 65.1716 210.754 64.7795 210.464C64.3932 210.18 63.9528 210.038 63.4585 210.038C63.0437 210.038 62.6858 210.134 62.3847 210.327C62.0835 210.526 61.8307 210.785 61.6261 211.103C61.4273 211.427 61.2597 211.774 61.1233 212.143C60.9926 212.512 60.8847 212.867 60.7994 213.208L60.3562 214.913C60.2199 215.47 60.0352 216.041 59.8023 216.626C59.5693 217.211 59.2625 217.754 58.8818 218.254C58.5011 218.754 58.0295 219.157 57.467 219.464C56.9045 219.776 56.2312 219.933 55.4472 219.933C54.4585 219.933 53.5807 219.677 52.8136 219.166C52.0466 218.66 51.4415 217.924 50.9983 216.958C50.5551 215.998 50.3335 214.836 50.3335 213.472C50.3335 212.166 50.5409 211.035 50.9557 210.08C51.3705 209.126 51.9585 208.379 52.7199 207.839C53.4869 207.299 54.396 207.001 55.4472 206.944V209.586C54.8165 209.637 54.2909 209.842 53.8705 210.2C53.4557 210.563 53.146 211.026 52.9415 211.589C52.7426 212.157 52.6432 212.779 52.6432 213.455C52.6432 214.2 52.7597 214.862 52.9926 215.441C53.2312 216.026 53.5608 216.487 53.9812 216.822C54.4074 217.157 54.9045 217.325 55.4727 217.325C55.9898 217.325 56.4131 217.177 56.7426 216.881C57.0722 216.592 57.3449 216.197 57.5608 215.697C57.7767 215.202 57.967 214.643 58.1318 214.018L58.6943 211.955C59.075 210.558 59.6347 209.45 60.3733 208.631C61.1119 207.819 62.0892 207.413 63.3051 207.413C64.3108 207.413 65.1886 207.685 65.9386 208.231C66.6886 208.776 67.271 209.515 67.6858 210.447C68.1062 211.379 68.3165 212.43 68.3165 213.6C68.3165 214.782 68.1091 215.825 67.6943 216.728C67.2795 217.637 66.7085 218.353 65.9812 218.876C65.2597 219.399 64.4301 219.671 63.4926 219.694V217.154Z" fill="#47515C"/>
<path d="M208.239 71.9807L203.373 54.5329L206.143 54.529L209.563 68.0413L209.725 68.0411L213.243 54.5192L215.987 54.5153L219.543 68.036L219.705 68.0358L223.078 54.5055L225.856 54.5016L221.031 71.9629L218.381 71.9666L214.689 58.8978L214.553 58.898L210.898 71.977L208.239 71.9807Z" fill="#47515C"/>
<path d="M103.952 214.854H114.424V216.751H105.798V216.812L107.362 219.262H105.624L103.952 216.659V214.854ZM114.567 208.04C114.567 208.8 114.44 209.475 114.184 210.065C113.928 210.651 113.579 211.112 113.136 211.446C112.689 211.776 112.183 211.94 111.617 211.937C111.177 211.94 110.773 211.844 110.405 211.65C110.037 211.456 109.73 211.193 109.485 210.863C109.236 210.529 109.077 210.157 109.009 209.748H108.937C108.818 210.287 108.544 210.723 108.114 211.057C107.681 211.388 107.182 211.551 106.616 211.548C106.077 211.551 105.596 211.401 105.174 211.098C104.751 210.794 104.419 210.379 104.177 209.85C103.931 209.322 103.808 208.718 103.808 208.04C103.808 207.368 103.931 206.77 104.177 206.245C104.419 205.717 104.751 205.301 105.174 204.997C105.596 204.691 106.077 204.537 106.616 204.537C107.182 204.537 107.681 204.706 108.114 205.043C108.544 205.377 108.818 205.809 108.937 206.337H109.009C109.077 205.928 109.236 205.56 109.485 205.233C109.73 204.902 110.037 204.639 110.405 204.445C110.773 204.247 111.177 204.148 111.617 204.148C112.183 204.148 112.689 204.316 113.136 204.65C113.579 204.984 113.928 205.444 114.184 206.03C114.44 206.613 114.567 207.283 114.567 208.04ZM113.105 208.04C113.105 207.648 113.039 207.307 112.906 207.017C112.769 206.727 112.578 206.502 112.333 206.342C112.087 206.182 111.804 206.1 111.484 206.097C111.15 206.1 110.855 206.187 110.599 206.358C110.34 206.525 110.137 206.755 109.991 207.048C109.844 207.338 109.771 207.668 109.771 208.04C109.771 208.415 109.844 208.749 109.991 209.042C110.137 209.335 110.34 209.567 110.599 209.738C110.855 209.905 111.15 209.987 111.484 209.983C111.804 209.987 112.087 209.908 112.333 209.748C112.575 209.588 112.764 209.363 112.9 209.073C113.037 208.78 113.105 208.435 113.105 208.04ZM108.334 208.04C108.334 207.719 108.269 207.437 108.14 207.191C108.01 206.942 107.829 206.746 107.598 206.603C107.366 206.46 107.098 206.387 106.795 206.383C106.495 206.387 106.232 206.458 106.007 206.598C105.779 206.738 105.603 206.932 105.481 207.181C105.354 207.43 105.291 207.716 105.291 208.04C105.291 208.371 105.354 208.662 105.481 208.914C105.603 209.163 105.779 209.358 106.007 209.497C106.232 209.634 106.495 209.7 106.795 209.697C107.098 209.7 107.366 209.632 107.598 209.492C107.826 209.349 108.007 209.153 108.14 208.904C108.269 208.652 108.334 208.364 108.334 208.04ZM114.624 198.164C114.624 199.006 114.411 199.729 113.985 200.333C113.555 200.933 112.936 201.394 112.128 201.718C111.317 202.039 110.34 202.199 109.198 202.199C108.056 202.196 107.085 202.034 106.283 201.713C105.479 201.389 104.865 200.927 104.442 200.327C104.02 199.724 103.808 199.003 103.808 198.164C103.808 197.326 104.02 196.605 104.442 196.001C104.865 195.398 105.479 194.936 106.283 194.615C107.088 194.292 108.06 194.13 109.198 194.13C110.344 194.13 111.322 194.292 112.133 194.615C112.941 194.936 113.558 195.398 113.985 196.001C114.411 196.601 114.624 197.322 114.624 198.164ZM113.023 198.164C113.023 197.51 112.701 196.993 112.057 196.615C111.409 196.233 110.456 196.042 109.198 196.042C108.366 196.042 107.667 196.129 107.102 196.303C106.536 196.477 106.11 196.722 105.823 197.039C105.533 197.356 105.389 197.731 105.389 198.164C105.389 198.815 105.712 199.33 106.36 199.709C107.004 200.087 107.95 200.278 109.198 200.281C110.033 200.285 110.736 200.201 111.305 200.031C111.874 199.857 112.304 199.611 112.594 199.294C112.88 198.977 113.023 198.601 113.023 198.164ZM139.896 211.124C139.896 212.348 140.904 213.37 142.143 213.37C143.396 213.37 144.404 212.348 144.404 211.124C144.404 209.871 143.396 208.863 142.143 208.863C140.904 208.863 139.896 209.871 139.896 211.124ZM143.54 211.124C143.54 211.872 142.92 212.506 142.143 212.506C141.38 212.506 140.76 211.872 140.76 211.124C140.76 210.346 141.38 209.727 142.143 209.727C142.92 209.727 143.54 210.346 143.54 211.124Z" fill="#333333"/>
<path d="M208.808 117.672L208.808 116.526L212.352 112.855C212.73 112.456 213.042 112.107 213.288 111.807C213.536 111.503 213.722 111.215 213.845 110.942C213.968 110.67 214.029 110.38 214.029 110.073C214.029 109.725 213.947 109.425 213.784 109.173C213.62 108.917 213.397 108.721 213.114 108.585C212.831 108.445 212.512 108.375 212.157 108.375C211.782 108.375 211.455 108.452 211.176 108.605C210.896 108.759 210.681 108.975 210.531 109.255C210.381 109.534 210.306 109.862 210.306 110.237L208.798 110.237C208.798 109.599 208.944 109.042 209.238 108.564C209.531 108.087 209.933 107.717 210.444 107.455C210.956 107.189 211.537 107.056 212.188 107.056C212.846 107.056 213.426 107.187 213.927 107.45C214.431 107.709 214.825 108.063 215.108 108.513C215.391 108.96 215.532 109.464 215.532 110.027C215.532 110.416 215.459 110.796 215.313 111.167C215.169 111.539 214.919 111.953 214.561 112.41C214.203 112.863 213.705 113.414 213.068 114.062L210.986 116.24L210.986 116.317L215.701 116.317L215.701 117.672L208.808 117.672ZM218.424 117.672L222.996 108.631L222.996 108.554L217.708 108.554L217.708 107.199L224.632 107.199L224.632 108.6L220.076 117.672L218.424 117.672ZM230.412 117.871C229.57 117.871 228.847 117.658 228.243 117.232C227.643 116.803 227.181 116.184 226.858 115.376C226.537 114.564 226.377 113.588 226.377 112.446C226.38 111.304 226.542 110.332 226.863 109.531C227.187 108.726 227.649 108.113 228.249 107.69C228.852 107.267 229.573 107.056 230.412 107.056C231.25 107.056 231.971 107.267 232.575 107.69C233.178 108.113 233.64 108.726 233.96 109.531C234.284 110.336 234.446 111.307 234.446 112.446C234.446 113.591 234.284 114.57 233.96 115.381C233.64 116.189 233.178 116.806 232.575 117.232C231.975 117.658 231.254 117.871 230.412 117.871ZM230.412 116.271C231.066 116.271 231.583 115.949 231.961 115.304C232.343 114.657 232.534 113.704 232.534 112.446C232.534 111.614 232.447 110.915 232.273 110.349C232.099 109.783 231.854 109.357 231.537 109.071C231.22 108.781 230.845 108.636 230.412 108.636C229.76 108.636 229.246 108.96 228.867 109.608C228.489 110.252 228.298 111.198 228.295 112.446C228.291 113.281 228.375 113.983 228.545 114.553C228.719 115.122 228.964 115.551 229.281 115.841C229.599 116.128 229.975 116.271 230.412 116.271ZM216.932 143.144C215.708 143.144 214.686 144.152 214.686 145.39C214.686 146.643 215.708 147.651 216.932 147.651C218.185 147.651 219.193 146.643 219.193 145.39C219.193 144.152 218.185 143.144 216.932 143.144ZM216.932 146.787C216.183 146.787 215.55 146.168 215.55 145.39C215.55 144.627 216.183 144.008 216.932 144.008C217.71 144.008 218.329 144.627 218.329 145.39C218.329 146.168 217.71 146.787 216.932 146.787Z" fill="#333333"/>
<path d="M214.962 325.138C214.495 325.134 214.034 325.049 213.581 324.882C213.127 324.715 212.718 324.442 212.354 324.064C211.985 323.686 211.692 323.174 211.474 322.53C211.252 321.889 211.14 321.091 211.137 320.137C211.137 319.22 211.229 318.403 211.413 317.687C211.597 316.975 211.861 316.373 212.205 315.882C212.546 315.391 212.96 315.018 213.448 314.762C213.935 314.507 214.484 314.379 215.095 314.379C215.718 314.379 216.272 314.502 216.756 314.747C217.241 314.992 217.634 315.332 217.938 315.765C218.241 316.201 218.43 316.702 218.505 317.268L216.946 317.268C216.843 316.818 216.635 316.453 216.322 316.174C216.005 315.898 215.596 315.759 215.095 315.759C214.327 315.759 213.729 316.094 213.3 316.762C212.87 317.433 212.654 318.371 212.65 319.574L212.732 319.574C212.909 319.281 213.131 319.029 213.397 318.817C213.659 318.606 213.954 318.442 214.281 318.327C214.609 318.211 214.958 318.153 215.33 318.153C215.933 318.153 216.482 318.301 216.976 318.598C217.471 318.894 217.864 319.302 218.158 319.82C218.451 320.338 218.597 320.929 218.597 321.594C218.597 322.255 218.447 322.855 218.147 323.394C217.844 323.933 217.421 324.359 216.879 324.673C216.334 324.99 215.695 325.145 214.962 325.138ZM214.956 323.808C215.355 323.808 215.715 323.709 216.035 323.512C216.352 323.317 216.603 323.053 216.787 322.719C216.971 322.388 217.063 322.02 217.063 321.615C217.063 321.209 216.975 320.841 216.797 320.51C216.617 320.183 216.371 319.922 216.061 319.728C215.747 319.537 215.389 319.441 214.987 319.441C214.687 319.441 214.408 319.499 214.148 319.615C213.889 319.731 213.663 319.891 213.468 320.096C213.274 320.304 213.122 320.539 213.013 320.802C212.904 321.064 212.85 321.34 212.85 321.63C212.85 322.015 212.942 322.373 213.126 322.704C213.306 323.034 213.555 323.3 213.872 323.502C214.189 323.706 214.551 323.808 214.956 323.808ZM205.063 314.323C205.905 314.323 206.628 314.536 207.231 314.962C207.831 315.391 208.293 316.01 208.617 316.818C208.937 317.629 209.098 318.606 209.098 319.748C209.094 320.89 208.932 321.862 208.612 322.663C208.288 323.467 207.826 324.081 207.226 324.504C206.623 324.927 205.902 325.138 205.063 325.138C204.224 325.138 203.503 324.927 202.9 324.504C202.296 324.081 201.835 323.467 201.514 322.663C201.19 321.858 201.028 320.887 201.028 319.748C201.028 318.603 201.19 317.624 201.514 316.813C201.835 316.005 202.296 315.388 202.9 314.962C203.5 314.536 204.221 314.323 205.063 314.323ZM205.063 315.923C204.408 315.923 203.892 316.245 203.514 316.89C203.132 317.537 202.941 318.49 202.941 319.748C202.941 320.58 203.028 321.279 203.202 321.845C203.375 322.411 203.621 322.837 203.938 323.123C204.255 323.413 204.63 323.558 205.063 323.558C205.714 323.558 206.229 323.234 206.607 322.586C206.986 321.942 207.177 320.996 207.18 319.748C207.183 318.913 207.1 318.211 206.929 317.641C206.756 317.072 206.51 316.642 206.193 316.353C205.876 316.066 205.499 315.923 205.063 315.923ZM214.431 289.05C215.655 289.05 216.678 288.042 216.678 286.804C216.678 285.551 215.655 284.543 214.431 284.543C213.178 284.543 212.17 285.551 212.17 286.804C212.17 288.042 213.178 289.05 214.431 289.05ZM214.431 285.407C215.18 285.407 215.814 286.026 215.814 286.804C215.814 287.567 215.18 288.186 214.431 288.186C213.654 288.186 213.034 287.567 213.034 286.804C213.034 286.026 213.654 285.407 214.431 285.407Z" fill="#333333"/>
<path fill-rule="evenodd" clip-rule="evenodd" d="M348.318 213.616L348.318 212.198H330.595L330.595 213.616L348.318 213.616ZM98.7829 213.616L98.7829 212.198H81.0599L81.0599 213.616L98.7829 213.616Z" fill="#FF5C32"/>
<path fill-rule="evenodd" clip-rule="evenodd" d="M216.107 82.1133L214.689 82.1133L214.689 99.8363H216.107V82.1133ZM216.107 332.003H214.689L214.689 349.726H216.107L216.107 332.003Z" fill="#FF5C32"/>
<path fill-rule="evenodd" clip-rule="evenodd" d="M149.108 99.6861L147.881 100.395L156.742 115.744L157.97 115.035L149.108 99.6861ZM274.054 316.096L272.826 316.805L281.687 332.154L282.915 331.445L274.054 316.096Z" fill="#47515C" fill-opacity="0.5"/>
<path fill-rule="evenodd" clip-rule="evenodd" d="M99.8725 148.403L99.1636 149.631L114.512 158.493L115.221 157.265L99.8725 148.403ZM316.284 273.349L315.575 274.576L330.924 283.438L331.633 282.21L316.284 273.349Z" fill="#47515C" fill-opacity="0.5"/>
<path fill-rule="evenodd" clip-rule="evenodd" d="M99.1631 282.207L99.872 283.435L115.221 274.574L114.512 273.346L99.1631 282.207ZM315.574 157.263L316.283 158.491L331.632 149.63L330.923 148.402L315.574 157.263Z" fill="#47515C" fill-opacity="0.5"/>
<path fill-rule="evenodd" clip-rule="evenodd" d="M147.881 331.445L149.109 332.154L157.97 316.806L156.742 316.097L147.881 331.445ZM272.826 115.034L274.054 115.743L282.916 100.394L281.688 99.6855L272.826 115.034Z" fill="#47515C" fill-opacity="0.5"/>
<path fill-rule="evenodd" clip-rule="evenodd" d="M181.56 86.7214L180.193 87.0877L181.841 93.2392L183.208 92.8729L181.56 86.7214ZM248.955 338.247L247.588 338.613L249.237 344.765L250.604 344.398L248.955 338.247Z" fill="#47515C" fill-opacity="0.2"/>
<path fill-rule="evenodd" clip-rule="evenodd" d="M121.582 120.927L120.582 121.927L125.085 126.43L126.085 125.43L121.582 120.927ZM305.379 304.711L304.378 305.712L309.391 310.725L310.392 309.724L305.379 304.711Z" fill="#47515C" fill-opacity="0.2"/>
<path fill-rule="evenodd" clip-rule="evenodd" d="M86.7435 180.536L86.3772 181.903L92.5287 183.551L92.895 182.184L86.7435 180.536ZM338.268 247.932L337.902 249.299L344.053 250.947L344.42 249.58L338.268 247.932Z" fill="#47515C" fill-opacity="0.2"/>
<path fill-rule="evenodd" clip-rule="evenodd" d="M86.3772 249.581L86.7435 250.948L92.895 249.299L92.5288 247.932L86.3772 249.581ZM337.902 182.185L338.268 183.552L344.42 181.904L344.053 180.537L337.902 182.185Z" fill="#47515C" fill-opacity="0.2"/>
<path fill-rule="evenodd" clip-rule="evenodd" d="M120.582 309.558L121.582 310.559L126.086 306.056L125.085 305.055L120.582 309.558ZM304.71 125.429L305.711 126.43L310.214 121.926L309.214 120.926L304.71 125.429Z" fill="#47515C" fill-opacity="0.2"/>
<path fill-rule="evenodd" clip-rule="evenodd" d="M180.192 344.398L181.559 344.765L183.208 338.613L181.841 338.247L180.192 344.398ZM247.588 92.8726L248.955 93.2389L250.603 87.0874L249.236 86.7211L247.588 92.8726Z" fill="#47515C" fill-opacity="0.2"/>
<g filter="url(#filter4_d_348_342)">
<circle cx="214" cy="99" r="15" fill="#FF5C32"/>
</g>
<g filter="url(#filter5_f_348_342)">
<ellipse cx="214.217" cy="93.0473" rx="9.56521" ry="8.91304" fill="#FFFBF4"/>
</g>
</g>
<defs>
<filter id="filter0_f_348_342" x="40.4998" y="-89.2324" width="486.578" height="489.083" filterUnits="userSpaceOnUse" color-interpolation-filters="sRGB">
<feFlood flood-opacity="0" result="BackgroundImageFix"/>
<feBlend mode="normal" in="SourceGraphic" in2="BackgroundImageFix" result="shape"/>
<feGaussianBlur stdDeviation="50" result="effect1_foregroundBlur_348_342"/>
</filter>
<filter id="filter1_f_348_342" x="-282.57" y="-141.979" width="828.788" height="830.788" filterUnits="userSpaceOnUse" color-interpolation-filters="sRGB">
<feFlood flood-opacity="0" result="BackgroundImageFix"/>
<feBlend mode="normal" in="SourceGraphic" in2="BackgroundImageFix" result="shape"/>
<feGaussianBlur stdDeviation="150" result="effect1_foregroundBlur_348_342"/>
</filter>
<filter id="filter2_dd_348_342" x="17.0977" y="21.1509" width="400.537" height="399.537" filterUnits="userSpaceOnUse" color-interpolation-filters="sRGB">
<feFlood flood-opacity="0" result="BackgroundImageFix"/>
<feColorMatrix in="SourceAlpha" type="matrix" values="0 0 0 0 0 0 0 0 0 0 0 0 0 0 0 0 0 0 127 0" result="hardAlpha"/>
<feOffset dx="4" dy="6"/>
<feGaussianBlur stdDeviation="30"/>
<feComposite in2="hardAlpha" operator="out"/>
<feColorMatrix type="matrix" values="0 0 0 0 1 0 0 0 0 0.80803 0 0 0 0 0.5475 0 0 0 0.36 0"/>
<feBlend mode="normal" in2="BackgroundImageFix" result="effect1_dropShadow_348_342"/>
<feColorMatrix in="SourceAlpha" type="matrix" values="0 0 0 0 0 0 0 0 0 0 0 0 0 0 0 0 0 0 127 0" result="hardAlpha"/>
<feOffset dx="-9" dy="-6"/>
<feGaussianBlur stdDeviation="25"/>
<feComposite in2="hardAlpha" operator="out"/>
<feColorMatrix type="matrix" values="0 0 0 0 1 0 0 0 0 1 0 0 0 0 1 0 0 0 0.38 0"/>
<feBlend mode="normal" in2="effect1_dropShadow_348_342" result="effect2_dropShadow_348_342"/>
<feBlend mode="normal" in="SourceGraphic" in2="effect2_dropShadow_348_342" result="shape"/>
</filter>
<filter id="filter3_dii_348_342" x="83.5945" y="96.4204" width="278.999" height="278.999" filterUnits="userSpaceOnUse" color-interpolation-filters="sRGB">
<feFlood flood-opacity="0" result="BackgroundImageFix"/>
<feColorMatrix in="SourceAlpha" type="matrix" values="0 0 0 0 0 0 0 0 0 0 0 0 0 0 0 0 0 0 127 0" result="hardAlpha"/>
<feOffset dx="10" dy="20"/>
<feGaussianBlur stdDeviation="25"/>
<feComposite in2="hardAlpha" operator="out"/>
<feColorMatrix type="matrix" values="0 0 0 0 1 0 0 0 0 0.707295 0 0 0 0 0.310052 0 0 0 1 0"/>
<feBlend mode="normal" in2="BackgroundImageFix" result="effect1_dropShadow_348_342"/>
<feBlend mode="normal" in="SourceGraphic" in2="effect1_dropShadow_348_342" result="shape"/>
<feColorMatrix in="SourceAlpha" type="matrix" values="0 0 0 0 0 0 0 0 0 0 0 0 0 0 0 0 0 0 127 0" result="hardAlpha"/>
<feOffset dx="20" dy="20"/>
<feGaussianBlur stdDeviation="25"/>
<feComposite in2="hardAlpha" operator="arithmetic" k2="-1" k3="1"/>
<feColorMatrix type="matrix" values="0 0 0 0 0.9875 0 0 0 0 0.9335 0 0 0 0 0.828677 0 0 0 1 0"/>
<feBlend mode="normal" in2="shape" result="effect2_innerShadow_348_342"/>
<feColorMatrix in="SourceAlpha" type="matrix" values="0 0 0 0 0 0 0 0 0 0 0 0 0 0 0 0 0 0 127 0" result="hardAlpha"/>
<feOffset dx="-11" dy="-10"/>
<feGaussianBlur stdDeviation="14"/>
<feComposite in2="hardAlpha" operator="arithmetic" k2="-1" k3="1"/>
<feColorMatrix type="matrix" values="0 0 0 0 1 0 0 0 0 0.707295 0 0 0 0 0.310052 0 0 0 0.3 0"/>
<feBlend mode="normal" in2="effect2_innerShadow_348_342" result="effect3_innerShadow_348_342"/>
</filter>
<filter id="filter4_d_348_342" x="169" y="58" width="90" height="90" filterUnits="userSpaceOnUse" color-interpolation-filters="sRGB">
<feFlood flood-opacity="0" result="BackgroundImageFix"/>
<feColorMatrix in="SourceAlpha" type="matrix" values="0 0 0 0 0 0 0 0 0 0 0 0 0 0 0 0 0 0 127 0" result="hardAlpha"/>
<feMorphology radius="10" operator="dilate" in="SourceAlpha" result="effect1_dropShadow_348_342"/>
<feOffset dy="4"/>
<feGaussianBlur stdDeviation="10"/>
<feComposite in2="hardAlpha" operator="out"/>
<feColorMatrix type="matrix" values="0 0 0 0 0.101961 0 0 0 0 0.45098 0 0 0 0 0.909804 0 0 0 0.07 0"/>
<feBlend mode="normal" in2="BackgroundImageFix" result="effect1_dropShadow_348_342"/>
<feBlend mode="normal" in="SourceGraphic" in2="effect1_dropShadow_348_342" result="shape"/>
</filter>
<filter id="filter5_f_348_342" x="183.652" y="63.1343" width="61.1304" height="59.8262" filterUnits="userSpaceOnUse" color-interpolation-filters="sRGB">
<feFlood flood-opacity="0" result="BackgroundImageFix"/>
<feBlend mode="normal" in="SourceGraphic" in2="BackgroundImageFix" result="shape"/>
<feGaussianBlur stdDeviation="10.5" result="effect1_foregroundBlur_348_342"/>
</filter>
<clipPath id="clip0_348_342">
<rect width="430" height="430" fill="white"/>
</clipPath>
</defs>
</svg>
