<svg width="16" height="17" viewBox="0 0 16 17" fill="none" xmlns="http://www.w3.org/2000/svg">
<path d="M16 13.3424V7.79455C16 7.26075 16 6.99285 15.9351 6.74435C15.8775 6.52395 15.7827 6.31504 15.6548 6.12661C15.5104 5.91399 15.3096 5.7381 14.9074 5.38624L10.1074 1.18624C9.3608 0.53295 8.9875 0.20635 8.5674 0.08211C8.1972 -0.02737 7.8028 -0.02737 7.4326 0.08211C7.0127 0.20628 6.6398 0.5326 5.894 1.18516L5.8928 1.18624L1.09277 5.38624L1.09182 5.38708C0.69032 5.73838 0.48944 5.91416 0.34521 6.12662C0.2173 6.31504 0.12255 6.52395 0.06497 6.74435C1.49012e-08 6.99295 0 7.26015 0 7.79455V13.3424C0 14.2743 -1.93715e-07 14.7401 0.15224 15.1077C0.35523 15.5977 0.74481 15.9871 1.23486 16.1901C1.60241 16.3423 2.06835 16.3424 3.00023 16.3424C3.93211 16.3424 4.39782 16.3423 4.76537 16.1901C5.25542 15.9871 5.6447 15.5977 5.8477 15.1077C5.9999 14.7401 6 14.2743 6 13.3424V12.3424C6 11.2378 6.8954 10.3424 8 10.3424C9.1046 10.3424 10 11.2378 10 12.3424V13.3424C10 14.2743 10 14.7401 10.1522 15.1077C10.3552 15.5977 10.7448 15.9871 11.2349 16.1901C11.6024 16.3423 12.0683 16.3424 13.0002 16.3424C13.9321 16.3424 14.3978 16.3423 14.7654 16.1901C15.2554 15.9871 15.6447 15.5977 15.8477 15.1077C15.9999 14.7401 16 14.2743 16 13.3424Z" fill="#FFFBF4"/>
</svg>
