<svg width="428" height="486" viewBox="0 0 428 486" fill="none" xmlns="http://www.w3.org/2000/svg">
<circle cx="212" cy="243" r="235.5" fill="url(#paint0_linear_329_258)" stroke="url(#paint1_linear_329_258)" stroke-width="15"/>
<g filter="url(#filter0_d_329_258)">
<path d="M288.604 266.607L277.065 249.206C274.632 245.322 272.26 237.876 272.069 233.462L270.888 206.23C270.354 194.218 266.431 182.603 259.571 172.729C252.711 162.854 243.196 155.124 232.126 150.431C229.145 145.636 224.93 141.729 219.922 139.12C214.915 136.51 209.298 135.294 203.66 135.597C191.927 136.106 181.654 142.914 176.491 153.167C155.954 164.518 142.361 186.784 143.444 211.756L144.625 238.988C144.816 243.402 143.098 251.025 141.005 254.998L130.913 273.445C126.92 280.843 126.297 288.851 129.305 296.053C132.201 303.153 138.579 308.484 146.661 310.83C167.851 317.029 189.959 319.521 211.917 318.569C233.875 317.617 255.684 313.22 276.263 305.318C283.69 302.516 289.255 296.559 291.732 289.011C294.208 281.462 293.1 273.314 288.604 266.607ZM242.635 328.129C240.643 334.493 236.74 340.09 231.456 344.159C226.172 348.227 219.764 350.57 213.102 350.87C204.599 351.238 196.053 348.158 189.867 342.279C186.283 339.2 183.513 335.006 181.815 330.658C183.223 330.813 184.627 330.86 186.143 331.01C188.633 331.225 191.23 331.436 193.823 331.539C199.982 331.812 206.239 331.864 212.482 331.593C218.617 331.327 224.739 330.738 230.743 329.939C232.994 329.625 235.25 329.42 237.389 329.003L242.635 328.129Z" fill="url(#paint2_radial_329_258)"/>
</g>
<g filter="url(#filter1_d_329_258)">
<path d="M157.5 132.5L148.988 135.929C132.039 142.755 120.164 158.283 118.015 176.428L117 185" stroke="white"/>
</g>
<g filter="url(#filter2_d_329_258)">
<path d="M165 144.5V144.5C145.335 146.78 130.5 163.435 130.5 183.231V190.5" stroke="white"/>
</g>
<g filter="url(#filter3_d_329_258)">
<g filter="url(#filter4_d_329_258)">
<path d="M293.926 187.471L294.179 178.298C294.685 160.033 285.187 142.947 269.408 133.735L261.953 129.383" stroke="white"/>
</g>
<g filter="url(#filter5_d_329_258)">
<path d="M279.929 189.558V189.558C285.688 170.618 276.339 150.368 258.187 142.467L251.522 139.565" stroke="white"/>
</g>
</g>
<defs>
<filter id="filter0_d_329_258" x="121.417" y="133.552" width="177.606" height="227.348" filterUnits="userSpaceOnUse" color-interpolation-filters="sRGB">
<feFlood flood-opacity="0" result="BackgroundImageFix"/>
<feColorMatrix in="SourceAlpha" type="matrix" values="0 0 0 0 0 0 0 0 0 0 0 0 0 0 0 0 0 0 127 0" result="hardAlpha"/>
<feOffset dy="4"/>
<feGaussianBlur stdDeviation="3"/>
<feComposite in2="hardAlpha" operator="out"/>
<feColorMatrix type="matrix" values="0 0 0 0 0 0 0 0 0 0 0 0 0 0 0 0 0 0 0.25 0"/>
<feBlend mode="normal" in2="BackgroundImageFix" result="effect1_dropShadow_329_258"/>
<feBlend mode="normal" in="SourceGraphic" in2="effect1_dropShadow_329_258" result="shape"/>
</filter>
<filter id="filter1_d_329_258" x="114.503" y="132.036" width="45.1833" height="59.0225" filterUnits="userSpaceOnUse" color-interpolation-filters="sRGB">
<feFlood flood-opacity="0" result="BackgroundImageFix"/>
<feColorMatrix in="SourceAlpha" type="matrix" values="0 0 0 0 0 0 0 0 0 0 0 0 0 0 0 0 0 0 127 0" result="hardAlpha"/>
<feOffset dy="4"/>
<feGaussianBlur stdDeviation="1"/>
<feComposite in2="hardAlpha" operator="out"/>
<feColorMatrix type="matrix" values="0 0 0 0 0 0 0 0 0 0 0 0 0 0 0 0 0 0 0.25 0"/>
<feBlend mode="normal" in2="BackgroundImageFix" result="effect1_dropShadow_329_258"/>
<feBlend mode="normal" in="SourceGraphic" in2="effect1_dropShadow_329_258" result="shape"/>
</filter>
<filter id="filter2_d_329_258" x="128" y="144.003" width="39.0576" height="52.4966" filterUnits="userSpaceOnUse" color-interpolation-filters="sRGB">
<feFlood flood-opacity="0" result="BackgroundImageFix"/>
<feColorMatrix in="SourceAlpha" type="matrix" values="0 0 0 0 0 0 0 0 0 0 0 0 0 0 0 0 0 0 127 0" result="hardAlpha"/>
<feOffset dy="4"/>
<feGaussianBlur stdDeviation="1"/>
<feComposite in2="hardAlpha" operator="out"/>
<feColorMatrix type="matrix" values="0 0 0 0 0 0 0 0 0 0 0 0 0 0 0 0 0 0 0.25 0"/>
<feBlend mode="normal" in2="BackgroundImageFix" result="effect1_dropShadow_329_258"/>
<feBlend mode="normal" in="SourceGraphic" in2="effect1_dropShadow_329_258" result="shape"/>
</filter>
<filter id="filter3_d_329_258" x="247.323" y="128.951" width="51.376" height="68.7529" filterUnits="userSpaceOnUse" color-interpolation-filters="sRGB">
<feFlood flood-opacity="0" result="BackgroundImageFix"/>
<feColorMatrix in="SourceAlpha" type="matrix" values="0 0 0 0 0 0 0 0 0 0 0 0 0 0 0 0 0 0 127 0" result="hardAlpha"/>
<feOffset dy="4"/>
<feGaussianBlur stdDeviation="2"/>
<feComposite in2="hardAlpha" operator="out"/>
<feColorMatrix type="matrix" values="0 0 0 0 0 0 0 0 0 0 0 0 0 0 0 0 0 0 0.25 0"/>
<feBlend mode="normal" in2="BackgroundImageFix" result="effect1_dropShadow_329_258"/>
<feBlend mode="normal" in="SourceGraphic" in2="effect1_dropShadow_329_258" result="shape"/>
</filter>
<filter id="filter4_d_329_258" x="259.701" y="128.951" width="36.9973" height="64.5342" filterUnits="userSpaceOnUse" color-interpolation-filters="sRGB">
<feFlood flood-opacity="0" result="BackgroundImageFix"/>
<feColorMatrix in="SourceAlpha" type="matrix" values="0 0 0 0 0 0 0 0 0 0 0 0 0 0 0 0 0 0 127 0" result="hardAlpha"/>
<feOffset dy="4"/>
<feGaussianBlur stdDeviation="1"/>
<feComposite in2="hardAlpha" operator="out"/>
<feColorMatrix type="matrix" values="0 0 0 0 0 0 0 0 0 0 0 0 0 0 0 0 0 0 0.25 0"/>
<feBlend mode="normal" in2="BackgroundImageFix" result="effect1_dropShadow_329_258"/>
<feBlend mode="normal" in="SourceGraphic" in2="effect1_dropShadow_329_258" result="shape"/>
</filter>
<filter id="filter5_d_329_258" x="249.323" y="139.107" width="34.7993" height="56.5967" filterUnits="userSpaceOnUse" color-interpolation-filters="sRGB">
<feFlood flood-opacity="0" result="BackgroundImageFix"/>
<feColorMatrix in="SourceAlpha" type="matrix" values="0 0 0 0 0 0 0 0 0 0 0 0 0 0 0 0 0 0 127 0" result="hardAlpha"/>
<feOffset dy="4"/>
<feGaussianBlur stdDeviation="1"/>
<feComposite in2="hardAlpha" operator="out"/>
<feColorMatrix type="matrix" values="0 0 0 0 0 0 0 0 0 0 0 0 0 0 0 0 0 0 0.25 0"/>
<feBlend mode="normal" in2="BackgroundImageFix" result="effect1_dropShadow_329_258"/>
<feBlend mode="normal" in="SourceGraphic" in2="effect1_dropShadow_329_258" result="shape"/>
</filter>
<linearGradient id="paint0_linear_329_258" x1="212" y1="15" x2="212" y2="471" gradientUnits="userSpaceOnUse">
<stop stop-color="#FFE3BD"/>
<stop offset="1" stop-color="#FCEED3" stop-opacity="0"/>
</linearGradient>
<linearGradient id="paint1_linear_329_258" x1="397.908" y1="215.991" x2="212" y2="15" gradientUnits="userSpaceOnUse">
<stop stop-color="#FFE3BD"/>
<stop offset="1" stop-color="#FFF8EE"/>
</linearGradient>
<radialGradient id="paint2_radial_329_258" cx="0" cy="0" r="1" gradientUnits="userSpaceOnUse" gradientTransform="translate(208.461 243.229) rotate(87.5172) scale(107.741 82.8715)">
<stop stop-color="#FFC16D"/>
<stop offset="1" stop-color="#FFB44F"/>
</radialGradient>
</defs>
</svg>
