<svg width="20" height="19" viewBox="0 0 20 19" fill="none" xmlns="http://www.w3.org/2000/svg">
<path fill-rule="evenodd" clip-rule="evenodd" d="M17.9799 6.14701L18.3461 6.35073C18.9431 6.68285 19.2416 6.84892 19.4592 7.08489C19.6516 7.29365 19.7976 7.54096 19.8871 7.81046C19.9882 8.11508 19.989 8.45675 19.9906 9.1399L19.9919 9.7021C19.9934 10.3898 19.9938 10.7337 19.8929 11.0404C19.8037 11.3117 19.6574 11.5608 19.4638 11.7708C19.245 12.0082 18.9445 12.1747 18.3432 12.508L18.3429 12.5082L17.9813 12.7086L17.9758 12.7116C17.9231 12.7408 17.8958 12.756 17.8695 12.7716C17.5947 12.9355 17.3635 13.1629 17.1947 13.4347C17.178 13.4616 17.1616 13.4897 17.1294 13.5454C17.0973 13.6009 17.0812 13.6288 17.0663 13.6566C16.9152 13.9384 16.8339 14.2524 16.8291 14.5722C16.8287 14.6001 16.8292 14.6283 16.8301 14.6787L16.8304 14.7002L16.8376 15.1249C16.8491 15.8086 16.8546 16.1505 16.7591 16.4573C16.6747 16.7286 16.5333 16.9789 16.3445 17.1913C16.1312 17.4315 15.8358 17.6031 15.2444 17.9463L14.7567 18.2294C14.1622 18.5744 13.8646 18.747 13.5487 18.813C13.2692 18.8713 12.9808 18.8691 12.7022 18.8066C12.3874 18.736 12.0923 18.5589 11.5034 18.2053L11.1473 17.9915C11.0913 17.9578 11.0631 17.941 11.035 17.9253C10.7563 17.77 10.4446 17.6836 10.1257 17.6733C10.0936 17.6723 10.0604 17.6723 9.995 17.6723C9.9298 17.6723 9.8972 17.6723 9.8651 17.6733C9.5469 17.6835 9.2359 17.7696 8.95758 17.9243C8.92954 17.9399 8.90137 17.9566 8.8454 17.9901L8.49157 18.202L8.48784 18.2042C7.90328 18.5543 7.61066 18.7295 7.29772 18.7997C7.02028 18.862 6.73282 18.8644 6.45438 18.8067C6.13964 18.7416 5.84278 18.5709 5.24992 18.2292L4.75622 17.9447C4.1617 17.6021 3.86479 17.4308 3.65026 17.1903C3.46048 16.9777 3.31817 16.7269 3.23323 16.4548C3.13729 16.1474 3.14307 15.8048 3.15463 15.1198L3.15463 15.1196L3.15466 15.1181L3.16154 14.7106C3.1627 14.6416 3.16324 14.6071 3.16266 14.5732C3.15731 14.2592 3.07805 13.9509 2.93137 13.6732C2.91669 13.6454 2.90069 13.6175 2.87113 13.5659L2.8639 13.5533L2.86284 13.5515C2.82888 13.4922 2.8117 13.4622 2.79382 13.4333C2.62653 13.163 2.39755 12.9364 2.12523 12.7724C2.09663 12.7552 2.06688 12.7386 2.00918 12.7065L2.00421 12.7038L1.64587 12.5044L1.64392 12.5033L1.64336 12.503C1.04802 12.1718 0.749864 12.0059 0.532593 11.7703C0.340103 11.5615 0.194263 11.3142 0.104793 11.0447C0.00396438 10.741 0.00319259 10.4006 0.00165265 9.72144L0.00165256 9.7214L0.00164255 9.7154L0.000362598 9.1532L0.000352584 9.1505L0.000352517 9.15047C-0.00120244 8.46455 -0.00198092 8.12115 0.0987826 7.81485C0.188053 7.54353 0.334623 7.29446 0.528193 7.08443C0.746983 6.84704 1.04779 6.68035 1.64921 6.34705L1.64929 6.34701L2.01085 6.14664C2.06714 6.11545 2.09505 6.09986 2.12223 6.08365C2.39703 5.91979 2.62851 5.69229 2.79723 5.42044C2.81392 5.39356 2.82999 5.36577 2.86218 5.31006L2.8636 5.30761C2.89481 5.25356 2.91066 5.2261 2.92538 5.19864C3.07649 4.91682 3.15791 4.60289 3.16265 4.28315C3.16306 4.25586 3.16258 4.22817 3.16174 4.17978C3.1616 4.17208 3.16146 4.16386 3.16131 4.15504L3.15417 3.73038C3.14266 3.04664 3.13728 2.70472 3.23274 2.39798C3.31719 2.12662 3.45857 1.87636 3.64733 1.6639C3.8607 1.42374 4.15599 1.25218 4.74743 0.90892L5.23509 0.62589C5.82962 0.28083 6.12702 0.10825 6.44292 0.0422702C6.72239 -0.0161028 7.01134 -0.0140077 7.28991 0.0484903C7.60433 0.11904 7.89839 0.29558 8.48596 0.64833L8.48864 0.64993L8.84472 0.86371L8.85073 0.86731C8.90281 0.89858 8.92971 0.91473 8.95678 0.92982C9.2355 1.08518 9.5476 1.17166 9.8666 1.18192C9.8986 1.18295 9.9317 1.18295 9.9965 1.18295C10.0617 1.18295 10.0943 1.18295 10.1264 1.18192C10.4446 1.1717 10.7558 1.08561 11.0341 0.93089C11.0621 0.9153 11.0904 0.89859 11.1464 0.86509L11.5002 0.65323L11.5047 0.65055C12.0887 0.30083 12.3812 0.12567 12.694 0.0554502C12.9715 -0.00683078 13.259 -0.0091347 13.5375 0.0484903C13.8522 0.11364 14.1487 0.28438 14.7416 0.62601L15.2354 0.91057L15.2385 0.91234L15.2385 0.912357C15.8309 1.25375 16.1278 1.42484 16.342 1.66483C16.5318 1.8775 16.6737 2.12834 16.7587 2.40042C16.8547 2.70798 16.849 3.05094 16.8375 3.73697L16.8304 4.15397L16.8301 4.17302C16.8292 4.22587 16.8287 4.25533 16.8292 4.28412C16.834 4.60321 16.9151 4.91647 17.0658 5.19779C17.0804 5.22513 17.0963 5.25274 17.1268 5.30555L17.1299 5.3109C17.1625 5.36729 17.1791 5.39541 17.196 5.42262C17.364 5.69303 17.594 5.91946 17.8671 6.08304C17.8945 6.09949 17.923 6.11537 17.9799 6.14701ZM10 12C11.6569 12 13 10.6569 13 9C13 7.34315 11.6569 6 10 6C8.34315 6 7 7.34315 7 9C7 10.6569 8.34315 12 10 12Z" fill="#FFFBF4"/>
</svg>
